<svg width="46" height="30" viewBox="0 0 46 30" fill="none" xmlns="http://www.w3.org/2000/svg">
<path d="M0.0859476 29.584C0.0820414 19.8613 0.0810648 10.1387 0.0859476 0.416016C15.3623 0.416992 30.6377 0.416992 45.9141 0.416016C45.919 10.1387 45.918 19.8613 45.9141 29.584C44.4141 29.5869 42.9141 29.5742 41.4141 29.5898C40.0078 28.2109 38.626 26.8076 37.2305 25.417C38.7383 25.415 40.2451 25.418 41.7529 25.416C41.7539 18.4717 41.752 11.5273 41.7481 4.58301C29.249 4.58398 16.751 4.58398 4.25196 4.58301C4.24903 11.5273 4.24903 18.4727 4.25196 25.417C5.75782 25.417 7.26466 25.415 8.77149 25.418C7.44825 26.748 6.11622 28.0693 4.79396 29.4004C4.69923 29.4873 4.60939 29.6211 4.45899 29.585C3.00099 29.582 1.54298 29.583 0.0859476 29.584Z" fill="white"/>
<path d="M10.502 29.583C14.667 25.415 18.833 21.249 23 17.084C27.1699 21.2471 31.335 25.4141 35.499 29.582C27.167 29.585 18.835 29.583 10.502 29.583Z" fill="white"/>
</svg>
