<svg width="38" height="38" viewBox="0 0 38 38" fill="none" xmlns="http://www.w3.org/2000/svg">
<path d="M17.8711 0.287096C22.0937 0.0195179 26.3945 1.23827 29.832 3.70702C33.248 6.12303 35.8242 9.70897 36.9902 13.7305C38.3066 18.1699 37.8887 23.0976 35.832 27.248C34.0215 30.9453 30.959 34.0078 27.2676 35.8262C23.4043 37.7383 18.8691 38.25 14.6797 37.2363C10.0918 36.1758 5.97265 33.2793 3.3789 29.3516C0.9707 25.7656 -0.109378 21.3223 0.355465 17.0293C0.792965 12.707 2.8164 8.57811 5.93945 5.56444C9.11523 2.45116 13.4316 0.539049 17.8711 0.287096ZM16.7559 3.53514C11.4082 4.25194 6.60937 7.98241 4.57617 12.9746C2.99804 16.7305 2.97851 21.1094 4.51757 24.8828C5.8164 28.1094 8.23632 30.8711 11.2656 32.582C16.5586 35.6719 23.6543 35.2012 28.4844 31.4258C31.1953 29.3672 33.1953 26.3945 34.0781 23.1074C35.0605 19.498 34.7051 15.541 33.0644 12.1777C31.7832 9.52147 29.7285 7.24413 27.2168 5.69921C24.1269 3.77733 20.3516 3.01171 16.7559 3.53514Z" fill="white"/>
<path d="M17.4395 6.5C18.4785 6.5 19.5195 6.5 20.5605 6.5C20.5645 10.1465 20.5605 13.791 20.5625 17.4375C23.166 17.4395 25.7695 17.4355 28.375 17.4375C28.375 18.4785 28.375 19.5195 28.375 20.5625C24.7285 20.5625 21.084 20.5625 17.4395 20.5625C17.4375 15.875 17.4375 11.1875 17.4395 6.5Z" fill="white"/>
</svg>
