<svg width="42" height="42" viewBox="0 0 42 42" fill="none" xmlns="http://www.w3.org/2000/svg">
<path d="M0.166999 0.25C14.0557 0.25 27.9443 0.25 41.833 0.25C41.833 14.1387 41.834 28.0273 41.833 41.915C39.1816 39.2607 36.5273 36.6104 33.877 33.9551C33.707 33.8096 33.5693 33.5479 33.3115 33.5811C22.2637 33.5859 11.2158 33.582 0.166999 33.583C0.166022 22.4717 0.166999 11.3613 0.166999 0.25ZM10.583 6.50098C10.584 7.88965 10.583 9.27832 10.583 10.667C17.5273 10.667 24.4717 10.667 31.417 10.667C31.417 9.27832 31.416 7.88965 31.417 6.50098C24.4727 6.49902 17.5273 6.49902 10.583 6.50098ZM10.583 14.833C10.583 16.2217 10.584 17.6104 10.583 18.999C17.5273 19.001 24.4727 19 31.417 18.999C31.416 17.6104 31.417 16.2217 31.417 14.833C24.4727 14.833 17.5273 14.833 10.583 14.833ZM10.585 27.334C15.4453 27.333 20.3047 27.333 25.165 27.334C25.168 25.9443 25.168 24.5557 25.165 23.166C20.3047 23.167 15.4453 23.167 10.585 23.166C10.583 24.5557 10.582 25.9443 10.585 27.334Z" fill="white"/>
</svg>
