<svg width="48" height="40" viewBox="0 0 48 40" fill="none" xmlns="http://www.w3.org/2000/svg">
<path d="M22.4375 0.6875C30.25 0.6875 38.0625 0.6875 45.875 0.6875C45.875 4.85449 45.875 9.02051 45.875 13.1875C43.1426 13.1875 40.4092 13.1875 37.6768 13.1875C36.626 14.5742 35.5801 15.9648 34.5293 17.3516C33.4922 15.9648 32.4619 14.5732 31.4238 13.1875C28.4287 13.1875 25.4336 13.1875 22.4375 13.1875C22.4375 9.02051 22.4375 4.85449 22.4375 0.6875ZM25.5625 3.8125C25.5625 5.89551 25.5625 7.97949 25.5625 10.0625C28.04 10.0625 30.5176 10.0635 32.9951 10.0615C33.5146 10.7529 34.0273 11.4492 34.5469 12.1406C35.0771 11.4521 35.5947 10.7529 36.124 10.0625C38.333 10.0625 40.541 10.0625 42.75 10.0625C42.75 7.97949 42.75 5.89551 42.75 3.8125C37.0205 3.8125 31.292 3.8125 25.5625 3.8125Z" fill="white"/>
<path d="M20.9326 16.9453C22.3506 16.3291 23.9551 16.1602 25.4717 16.4541C27.2949 16.7978 28.9736 17.8291 30.1211 19.2852C31.1865 20.6211 31.794 22.3154 31.8106 24.0254C31.8594 26.3252 30.7695 28.5762 29.0215 30.0518C30.6924 30.9277 32.127 32.2393 33.1602 33.8164C33.7266 32.9941 34.4434 32.2744 35.2705 31.7129C34.3506 30.7969 33.6895 29.6103 33.4707 28.3252C33.1817 26.7256 33.5576 25.0166 34.501 23.6914C35.3086 22.541 36.501 21.6572 37.8516 21.2588C39.1983 20.8545 40.6836 20.9268 41.9824 21.4668C43.7129 22.1738 45.0889 23.6934 45.6172 25.4873C46.0127 26.8076 45.9483 28.2598 45.4326 29.5381C45.1104 30.3555 44.5967 31.0879 43.9815 31.7129C46.0996 33.1357 47.4531 35.6279 47.4385 38.1875C46.3965 38.1875 45.3555 38.1875 44.3145 38.1865C44.3115 36.75 43.6172 35.3369 42.4697 34.4697C41.3252 33.5762 39.752 33.2764 38.3574 33.6777C36.8467 34.0918 35.5928 35.3184 35.1445 36.8203C34.8408 37.7666 34.9629 38.7725 34.9375 39.75C33.8965 39.75 32.8555 39.75 31.8145 39.75C31.8096 38.2373 31.3652 36.7285 30.5293 35.4668C29.5283 33.9434 27.9844 32.7803 26.2344 32.2646C24.5889 31.7695 22.7793 31.8398 21.1797 32.4658C19.624 33.0664 18.2774 34.1826 17.3897 35.5928C16.6045 36.8271 16.1885 38.2871 16.1856 39.75C15.1445 39.75 14.1035 39.75 13.0625 39.75C13.0371 38.8047 13.1524 37.8359 12.8828 36.916C12.4922 35.5059 11.3994 34.3154 10.0283 33.8057C8.69923 33.2949 7.13868 33.4394 5.93068 34.1943C4.55665 35.0195 3.68263 36.585 3.68458 38.1875C2.64357 38.1875 1.60255 38.1875 0.561536 38.1875C0.545911 35.6309 1.8965 33.1299 4.0215 31.7168C3.08302 30.7783 2.4131 29.5625 2.20607 28.2451C1.94435 26.668 2.32325 24.9932 3.25197 23.6904C4.08595 22.5019 5.33009 21.5996 6.73536 21.2207C8.09669 20.8447 9.58693 20.9531 10.8779 21.5283C12.6572 22.3096 14.0342 23.957 14.4649 25.8545C14.9727 27.9385 14.2637 30.2256 12.7315 31.7119C13.5498 32.2764 14.2715 32.9844 14.8311 33.8076C15.8858 32.2451 17.3047 30.9258 18.9795 30.0508C17.877 29.1103 17.0186 27.876 16.5684 26.4951C15.9746 24.7061 16.084 22.7012 16.8526 20.9814C17.6416 19.1885 19.1299 17.7148 20.9326 16.9453ZM23.168 19.5137C21.3526 19.8047 19.8067 21.2783 19.4307 23.0781C19.0928 24.5547 19.5029 26.1895 20.541 27.2998C21.5225 28.3887 23.0401 28.9414 24.4922 28.7832C25.7861 28.6611 27.0127 27.9658 27.7774 26.9141C28.5088 25.9268 28.8145 24.6455 28.6328 23.4326C28.4551 22.1445 27.707 20.9473 26.6221 20.2295C25.6221 19.5518 24.3535 19.3018 23.168 19.5137ZM7.73829 24.1895C6.51759 24.4199 5.5049 25.4531 5.30275 26.6787C5.05079 27.9531 5.68068 29.3457 6.82618 29.9687C8.11134 30.7227 9.91212 30.3906 10.8213 29.2031C11.6221 28.2178 11.7197 26.7353 11.0635 25.6484C10.418 24.5127 9.0088 23.9131 7.73829 24.1895ZM38.9854 24.1904C37.7656 24.4209 36.7549 25.4541 36.5527 26.6787C36.3067 27.9307 36.9072 29.2998 38.0205 29.9355C39.2891 30.7168 41.0967 30.4209 42.0313 29.2529C42.8535 28.2822 42.9785 26.8018 42.3447 25.7012C41.71 24.5332 40.2774 23.9062 38.9854 24.1904Z" fill="white"/>
</svg>
