<svg width="32" height="38" viewBox="0 0 32 38" fill="none" xmlns="http://www.w3.org/2000/svg">
<path d="M12.5664 8.66504C14.1289 6.06445 15.6865 3.46191 17.249 0.861328C19.6719 3.22656 22.0293 5.66797 24.166 8.29785C26.002 10.543 27.7119 12.9043 29.1025 15.4541C30.2783 17.6279 31.2549 19.9619 31.5488 22.4355C31.8545 25.1914 31.167 28.0244 29.7305 30.3867C28.1777 32.958 25.79 34.9834 23.0654 36.2256C18.3399 38.4014 12.6035 38.2393 8.02051 35.7695C5.23536 34.2812 2.87989 31.9316 1.5586 29.0479C0.52442 26.8252 0.162115 24.3047 0.497076 21.8779C0.869147 19.1338 1.96778 16.54 3.3418 14.1553C5.0879 11.1074 7.33887 8.38867 9.67676 5.78027C10.6426 6.74023 11.6016 7.70508 12.5664 8.66504ZM13.1836 13.707C12.0684 12.5918 10.9561 11.4746 9.83887 10.3613C7.69727 12.9658 5.73634 15.7764 4.49708 18.9297C3.65919 21.0713 3.21094 23.4463 3.72071 25.7217C4.34571 28.6592 6.37501 31.168 8.92579 32.6914C8.61915 31.9307 8.3877 31.1367 8.27833 30.3223C7.9629 28.0752 8.52735 25.8037 9.40626 23.7441C10.0996 22.0879 11.0684 20.5713 11.9961 19.041C12.7295 19.7715 13.4609 20.5039 14.1914 21.2363C15.3496 19.5088 16.4981 17.7764 17.6543 16.0479C19.8066 18.9717 21.957 21.9844 23.1416 25.4512C23.6055 26.8271 23.9053 28.2871 23.7832 29.7451C23.71 30.7568 23.4541 31.75 23.0752 32.6904C25.2432 31.3896 27.0361 29.3975 27.9063 27.0059C28.585 25.1709 28.6817 23.1279 28.1582 21.2412C27.3652 18.3145 25.751 15.6963 24.0195 13.2383C22.1611 10.6416 20.0674 8.21973 17.8633 5.91309C16.2998 8.50879 14.7451 11.1104 13.1836 13.707ZM14.6836 26.1396C14.0068 25.4727 13.3399 24.7969 12.666 24.127C11.9473 25.6074 11.3691 27.2002 11.3184 28.8604C11.2666 30.5557 11.8857 32.3096 13.1524 33.4678C14.0811 34.335 15.4102 34.7998 16.6738 34.5625C17.8096 34.3721 18.8154 33.6699 19.4941 32.7539C20.6006 31.2725 20.9385 29.2812 20.4902 27.498C19.9717 25.3633 18.8789 23.4268 17.7246 21.5771C16.708 23.0957 15.6973 24.6182 14.6836 26.1396Z" fill="white"/>
</svg>
