<svg width="42" height="42" viewBox="0 0 42 42" fill="none" xmlns="http://www.w3.org/2000/svg">
<path d="M11.5967 2.42089C15.0488 0.654283 19.0049 -0.0966931 22.8662 0.25194C26.7002 0.582018 30.4248 2.02147 33.5 4.33202C34.8896 2.94628 36.2734 1.55467 37.666 0.171862C37.6641 3.64354 37.6728 7.11424 37.6621 10.5859C34.1924 10.5791 30.7226 10.5859 27.2529 10.583C28.333 9.4951 29.4228 8.416 30.5029 7.32713C27.9502 5.53807 24.8867 4.48631 21.7705 4.35253C18.5703 4.20116 15.3301 4.98631 12.5674 6.61229C9.54784 8.37499 7.10839 11.1133 5.71874 14.3223C4.39452 17.3467 4.01659 20.7676 4.60546 24.0137C5.15331 27.0674 6.58593 29.9531 8.68065 32.2412C10.7031 34.4609 13.3379 36.1172 16.2187 36.9697C20.8877 38.3779 26.166 37.6211 30.2197 34.8974C32.9814 33.0723 35.1738 30.4014 36.4238 27.3359C37.248 25.332 37.6592 23.166 37.666 21C39.0547 21 40.4433 21 41.832 21C41.832 24.9433 40.6904 28.8818 38.5517 32.1973C36.5439 35.3447 33.6748 37.9346 30.3408 39.6133C26.2324 41.6992 21.416 42.3398 16.9023 41.4199C11.4609 40.3545 6.53612 36.9805 3.53026 32.3271C1.43261 29.1201 0.255848 25.3193 0.176746 21.4883C0.0790901 17.7139 1.041 13.9189 2.93065 10.6504C4.94139 7.14549 7.99022 4.2451 11.5967 2.42089Z" fill="white"/>
<path d="M25.0586 13.6562C26.2695 13.4863 27.5723 13.6045 28.6406 14.2383C29.6924 14.8652 30.3857 15.9668 30.7119 17.1289C31.167 18.7031 31.0019 20.3584 31.0342 21.9746C31.0537 23.624 30.8262 25.3994 29.7598 26.7265C29.0644 27.6269 27.9844 28.1767 26.8623 28.3047C25.459 28.4795 23.9121 28.2431 22.8223 27.2802C21.749 26.3408 21.2275 24.9267 21.0801 23.5381C20.9853 22.7597 21.0117 21.9746 21.0078 21.1933C21.0156 19.8857 20.9424 18.5556 21.2822 17.2783C21.5654 16.1426 22.1904 15.0566 23.166 14.3808C23.7256 13.9892 24.3867 13.7607 25.0586 13.6562ZM25.7334 16.1718C25.2969 16.2304 24.9199 16.5312 24.7353 16.9258C24.418 17.581 24.376 18.3261 24.3516 19.042C24.3467 20.2802 24.3467 21.5185 24.3525 22.7568C24.3721 23.5742 24.3906 24.4502 24.8281 25.1699C25.3184 25.9765 26.6592 26.0107 27.1855 25.2265C27.6318 24.5595 27.6699 23.7217 27.6992 22.9443C27.7109 21.6748 27.707 20.4052 27.7012 19.1357C27.6816 18.3261 27.6416 17.4629 27.2021 16.7558C26.9014 16.2656 26.2803 16.0742 25.7334 16.1718Z" fill="white"/>
<path d="M16.208 13.8447C16.3672 13.7852 16.5391 13.7812 16.707 13.7686C16.708 18.5664 16.708 23.3633 16.707 28.1611C15.5947 28.1621 14.4834 28.1621 13.3711 28.1611C13.3701 24.6182 13.3711 21.0762 13.3701 17.5342C12.2773 17.8535 11.1855 18.1777 10.0908 18.4912C10.0918 17.6484 10.0898 16.8057 10.0918 15.9629C12.1309 15.2588 14.1699 14.5537 16.208 13.8447Z" fill="white"/>
</svg>
