<svg width="32" height="32" viewBox="0 0 32 32" fill="none" xmlns="http://www.w3.org/2000/svg">
<path d="M0.000892787 0.00102399C3.80942 0.000309712 7.61867 0.000309712 11.4279 0.00102399C11.4293 1.52458 11.4293 3.04813 11.4279 4.57169C9.14293 4.57312 6.85725 4.57026 4.57227 4.5724C4.57013 6.85738 4.57298 9.14306 4.57084 11.4288C3.04729 11.4295 1.52373 11.4295 0.000178629 11.428C0.000178629 7.6188 -0.000535768 3.81027 0.000892787 0.00102399Z" fill="white"/>
<path d="M20.5721 0.000178629C24.3806 0.000178629 28.1899 -0.000535768 31.9991 0.000892787C31.9998 3.80942 31.9998 7.61867 31.9991 11.4279C30.4756 11.4293 28.952 11.4293 27.4285 11.4279C27.427 9.14293 27.4299 6.85725 27.4277 4.57227C25.1428 4.57013 22.8571 4.57298 20.5714 4.57084C20.5707 3.04729 20.5707 1.52373 20.5721 0.000178629Z" fill="white"/>
<path d="M0.00088666 20.5721C1.52444 20.5707 3.048 20.5707 4.57155 20.5721C4.57298 22.8571 4.57012 25.1428 4.57226 27.4278C6.85724 27.4299 9.14293 27.427 11.4286 27.4292C11.4293 28.952 11.4293 30.4756 11.4279 31.9998C7.61866 31.9998 3.81013 32.0006 0.00088666 31.9991C0.000172383 28.1899 0.000172383 24.3814 0.00088666 20.5721Z" fill="white"/>
<path d="M27.4292 20.5715C28.952 20.5707 30.4756 20.5707 31.9998 20.5722C31.9998 24.3807 32.0005 28.1899 31.9991 31.9992C28.1899 31.9999 24.3813 31.9999 20.5721 31.9992C20.5707 30.4756 20.5707 28.9521 20.5721 27.4285C22.8571 27.4271 25.1428 27.4299 27.4277 27.4278C27.4299 25.1428 27.427 22.8571 27.4292 20.5715Z" fill="white"/>
</svg>
