<svg width="42" height="42" viewBox="0 0 42 42" fill="none" xmlns="http://www.w3.org/2000/svg">
<path d="M16.3125 0.6875C19.4375 0.6875 22.5625 0.6875 25.6875 0.6875C25.6875 13.1875 25.6875 25.6875 25.6875 38.1875C26.7295 38.1875 27.7705 38.1875 28.8125 38.1875C28.8125 31.417 28.8125 24.6455 28.8125 17.875C31.9375 17.875 35.0625 17.875 38.1875 17.875C38.1875 24.6455 38.1875 31.417 38.1875 38.1875C39.2295 38.1875 40.2705 38.1875 41.3125 38.1875C41.3125 39.2295 41.3125 40.2705 41.3125 41.3125C27.7705 41.3125 14.2295 41.3125 0.6875 41.3125C0.6875 40.2705 0.6875 39.2295 0.6875 38.1875C1.72949 38.1875 2.77051 38.1875 3.8125 38.1875C3.8125 27.7705 3.8125 17.3545 3.8125 6.9375C6.9375 6.9375 10.0625 6.9375 13.1875 6.9375C13.1875 17.3545 13.1875 27.7705 13.1875 38.1875C14.2295 38.1875 15.2705 38.1875 16.3125 38.1875C16.3125 25.6875 16.3125 13.1875 16.3125 0.6875ZM19.4375 3.8125C19.4375 15.2705 19.4375 26.7295 19.4375 38.1875C20.4795 38.1875 21.5205 38.1875 22.5625 38.1875C22.5625 26.7295 22.5625 15.2705 22.5625 3.8125C21.5205 3.8125 20.4795 3.8125 19.4375 3.8125Z" fill="white"/>
</svg>
