<svg width="46" height="38" viewBox="0 0 46 38" fill="none" xmlns="http://www.w3.org/2000/svg">
<path d="M8.41897 12.749C12.584 8.58203 16.75 4.41602 20.916 0.250977C20.917 12.75 20.916 25.25 20.917 37.749C16.752 33.582 12.585 29.416 8.41799 25.251C7.02834 25.2471 5.63772 25.2529 4.24709 25.248C3.0801 25.249 1.92385 24.7363 1.14944 23.8623C0.459983 23.1016 0.0761945 22.0791 0.0849836 21.0527C0.084007 19.6514 0.0791242 18.25 0.0869367 16.8486C0.0967024 15.6699 0.644554 14.5127 1.54299 13.7529C2.28713 13.1074 3.26858 12.751 4.25198 12.752C5.64065 12.7471 7.02932 12.7529 8.41897 12.749Z" fill="white"/>
<path d="M38.5898 1.3252C42.4961 5.19824 45.0391 10.4072 45.7002 15.8672C46.3125 20.6699 45.4922 25.6465 43.3652 29.9971C42.1592 32.4678 40.5361 34.7314 38.5928 36.6748C37.6123 35.6914 36.6299 34.71 35.6475 33.7295C38.6924 30.6855 40.7783 26.6894 41.4717 22.4355C42.375 17.1621 41.1328 11.5596 38.0654 7.17383C37.3525 6.13281 36.5313 5.16992 35.6475 4.27051C36.626 3.28711 37.6113 2.30859 38.5898 1.3252Z" fill="white"/>
<path d="M29.7549 10.1631C30.7354 9.17969 31.7178 8.19824 32.7002 7.2168C35.0918 9.60254 36.7256 12.7314 37.3066 16.0596C37.8818 19.2734 37.4941 22.6543 36.1914 25.6484C35.3662 27.5615 34.1689 29.3076 32.7002 30.7832C31.7197 29.7998 30.7373 28.8184 29.7559 27.8369C31.9072 25.6943 33.2451 22.7529 33.4053 19.7168C33.6289 16.2021 32.2568 12.6377 29.7549 10.1631Z" fill="white"/>
<path d="M23.8643 16.0537C24.8447 15.0703 25.8262 14.0898 26.8096 13.1094C28.1934 14.4863 29.0537 16.3672 29.2061 18.3125C29.417 20.7178 28.5244 23.1934 26.8086 24.8955C25.8271 23.9131 24.8447 22.9307 23.8643 21.9463C24.6299 21.1699 25.1016 20.0996 25.0937 19.0029C25.1035 17.9053 24.6328 16.8311 23.8643 16.0537Z" fill="white"/>
</svg>
