<svg width="30" height="38" viewBox="0 0 30 38" fill="none" xmlns="http://www.w3.org/2000/svg">
<path d="M8.42381 12.7461C12.584 8.57715 16.7519 4.41504 20.917 0.250977C20.917 12.75 20.916 25.25 20.917 37.749C16.7558 33.5811 12.5859 29.4209 8.42577 25.2529C6.96678 25.2402 5.50878 25.2637 4.05077 25.2412C2.38963 25.1846 0.840806 24.0234 0.314439 22.4473C0.0195173 21.6572 0.0908063 20.8027 0.0829938 19.9766C0.0859235 18.9355 0.078111 17.8945 0.0869001 16.8545C0.0966657 15.8135 0.517564 14.7861 1.24022 14.0391C1.99217 13.2471 3.06444 12.7725 4.15624 12.7539C5.57909 12.7422 7.00096 12.7578 8.42381 12.7461Z" fill="white"/>
<path d="M23.8623 16.0576C24.8379 15.0693 25.8232 14.0908 26.8066 13.1094C28.2158 14.5098 29.0977 16.4268 29.2275 18.4102C29.4141 20.7881 28.501 23.2129 26.8066 24.8896C25.8252 23.9063 24.8291 22.9355 23.8652 21.9346C24.6582 21.1445 25.1123 20.0273 25.0791 18.9063C25.0615 17.8457 24.6094 16.8086 23.8623 16.0576Z" fill="white"/>
</svg>
