<svg width="48" height="40" viewBox="0 0 48 40" fill="none" xmlns="http://www.w3.org/2000/svg">
<path d="M0.863281 8.83008C6.91211 6.13281 12.9561 3.42187 19.0039 0.722656C20.6719 2.38867 22.333 4.0625 24.001 5.72852C25.6943 4.03809 27.3848 2.34668 29.0752 0.654297C34.9268 3.25781 40.7686 5.88184 46.6162 8.49317C46.8154 8.58789 47.0332 8.65137 47.208 8.79199C45.1855 10.8398 43.1963 12.9219 41.1875 14.9834C41.1885 20.4277 41.1875 25.8711 41.1875 31.3154C35.4609 34.042 29.7314 36.7637 23.999 39.4795C18.2715 36.7559 12.543 34.0342 6.8125 31.3164C6.81348 25.873 6.81055 20.4297 6.81445 14.9863C4.83691 12.9287 2.84375 10.8857 0.863281 8.83008ZM6.22168 9.85352C7.30469 10.9893 8.40625 12.1064 9.4834 13.2471C9.76269 13.1553 10.0244 13.0205 10.2949 12.9072C14.1113 11.2354 17.9316 9.57031 21.7461 7.89356C20.6055 6.74317 19.458 5.59961 18.3154 4.45117C14.2822 6.24902 10.2568 8.06152 6.22168 9.85352ZM26.2559 7.89453C30.3438 9.67481 34.4219 11.4775 38.5137 13.248C39.623 12.0908 40.7461 10.9482 41.8574 9.79297C37.8281 7.98633 33.7979 6.18359 29.7646 4.38574C28.5957 5.55566 27.4258 6.72559 26.2559 7.89453ZM13.1318 15.0771C16.7529 16.665 20.3779 18.2432 23.999 19.832C27.624 18.2539 31.2461 16.6709 34.8662 15.0801C31.248 13.4824 27.623 11.9033 23.998 10.3213C20.3779 11.9111 16.7549 13.4941 13.1318 15.0771ZM9.93848 17.0938C9.93652 21.1748 9.93848 25.2568 9.9375 29.3379C14.1045 31.3174 18.2725 33.293 22.4375 35.2773C22.4307 31.0352 22.4512 26.791 22.4277 22.5488C18.2598 20.7412 14.1045 18.9043 9.93848 17.0938ZM25.5713 22.5508C25.5518 26.793 25.5674 31.0352 25.5635 35.2773C29.7314 33.3027 33.8955 31.3203 38.0625 29.3418C38.0625 25.2588 38.0625 21.1768 38.0625 17.0938C33.8984 18.9131 29.7412 20.7471 25.5713 22.5508Z" fill="white"/>
</svg>
