<svg width="38" height="38" viewBox="0 0 38 38" fill="none" xmlns="http://www.w3.org/2000/svg">
<path d="M20.916 0.250977C20.9179 12.751 20.916 25.25 20.917 37.749C16.7529 33.5811 12.5859 29.416 8.41795 25.251C6.96092 25.2422 5.50388 25.2627 4.04685 25.2402C2.46092 25.1836 0.973611 24.126 0.391579 22.6514C0.110329 21.9951 0.0634545 21.2715 0.0829857 20.5664C0.086892 19.3272 0.078103 18.0889 0.0868921 16.8506C0.0966577 15.7188 0.599587 14.6064 1.4365 13.8467C2.19334 13.1455 3.21873 12.75 4.24998 12.752C5.63963 12.7461 7.02928 12.7529 8.41892 12.749C12.584 8.58203 16.75 4.41699 20.916 0.250977Z" fill="white"/>
<path d="M29.7559 10.1621C30.7363 9.17969 31.7178 8.19727 32.7012 7.2168C35.0928 9.60352 36.7266 12.7334 37.3076 16.0635C37.8809 19.2754 37.4941 22.6553 36.1914 25.6484C35.3672 27.5605 34.1689 29.3076 32.7002 30.7832C31.7197 29.7998 30.7373 28.8184 29.7559 27.8359C31.9248 25.6777 33.2637 22.707 33.4092 19.6484C33.6123 16.1553 32.2393 12.6221 29.7559 10.1621Z" fill="white"/>
<path d="M23.8643 16.0537C24.8447 15.0703 25.8262 14.0898 26.8096 13.1094C28.1924 14.4854 29.0527 16.3643 29.2061 18.3076C29.418 20.7139 28.5264 23.1924 26.8086 24.8945C25.8271 23.9131 24.8447 22.9307 23.8643 21.9463C24.6318 21.168 25.1035 20.0947 25.0937 18.9961C25.1016 17.9004 24.6309 16.8301 23.8643 16.0537Z" fill="white"/>
</svg>
