<svg width="42" height="38" viewBox="0 0 42 38" fill="none" xmlns="http://www.w3.org/2000/svg">
<path d="M8.49805 12.75C12.667 8.58594 16.8311 4.41602 20.999 0.251953C21.001 12.751 20.999 25.251 21 37.75C16.8369 33.5801 12.6689 29.416 8.50196 25.25C7.06836 25.2461 5.63477 25.2578 4.20215 25.2441C2.66211 25.2139 1.19531 24.2422 0.557619 22.8418C0.279299 22.2559 0.159181 21.6035 0.166994 20.957C0.168947 19.5918 0.162111 18.2256 0.169924 16.8594C0.177736 15.6416 0.758791 14.4482 1.70606 13.6846C2.43164 13.0928 3.36035 12.7588 4.29688 12.752C5.69727 12.7461 7.09766 12.752 8.49805 12.75Z" fill="white"/>
<path d="M25.7803 14.2187C26.7627 13.2402 27.7402 12.2568 28.7227 11.2773C30.3174 12.8672 31.9072 14.4619 33.5 16.0527C35.0957 14.4639 36.6836 12.8662 38.2803 11.2783C39.2627 12.2568 40.2383 13.2412 41.2217 14.2187C39.6367 15.8184 38.0381 17.4043 36.4482 19C38.0371 20.5947 39.6357 22.1807 41.2207 23.7793C40.2432 24.7598 39.2598 25.7354 38.2852 26.7178C36.6787 25.1396 35.0986 23.5332 33.5 21.9473C31.9014 23.5332 30.3262 25.1455 28.7119 26.7158C27.7432 25.7305 26.7588 24.7607 25.7832 23.7822C27.3633 22.1777 28.9668 20.5967 30.5547 19C28.9648 17.4043 27.3652 15.8184 25.7803 14.2187Z" fill="white"/>
</svg>
