<svg width="46" height="42" viewBox="0 0 46 42" fill="none" xmlns="http://www.w3.org/2000/svg">
<path d="M2.78026 3.71875C3.75975 2.73926 4.74022 1.76074 5.71873 0.780273C15.2666 10.3066 24.7939 19.8545 34.3349 29.3877C37.2939 32.3545 40.2685 35.3066 43.2187 38.2812C42.2373 39.2607 41.2597 40.2422 40.2783 41.2207C33.8222 34.7715 27.374 28.3145 20.9179 21.8652C20.915 27.8262 20.917 33.7881 20.917 39.749C16.7529 35.5811 12.5859 31.417 8.4199 27.252C7.02928 27.2461 5.63865 27.2539 4.24803 27.248C3.33787 27.2461 2.43162 26.9404 1.7119 26.3828C0.713849 25.627 0.095685 24.3975 0.0868959 23.1445C0.08006 21.7441 0.0839662 20.3428 0.0849428 18.9424C0.0790834 17.9922 0.405255 17.043 1.00584 16.3047C1.7617 15.3604 2.94334 14.7715 4.15428 14.7539C5.57615 14.7422 6.999 14.7568 8.42088 14.7471C9.31248 13.8447 10.2226 12.96 11.1054 12.0498C8.33006 9.27344 5.54979 6.50195 2.78026 3.71875Z" fill="white"/>
<path d="M17 6.16894C18.3037 4.86035 19.6104 3.55664 20.917 2.25098C20.917 4.86133 20.917 7.47168 20.916 10.082C19.6084 8.78027 18.3057 7.47266 17 6.16894Z" fill="white"/>
<path d="M38.5781 3.32812C42.3018 6.98145 44.79 11.8633 45.6006 17.0137C46.4424 22.2109 45.5908 27.665 43.1846 32.3496C42.1396 31.3096 41.0977 30.2666 40.0586 29.2217C41.917 24.9023 42.2578 19.9512 40.9922 15.4219C40.0527 11.9717 38.1709 8.79883 35.6475 6.27051C36.6211 5.28613 37.6113 4.31934 38.5781 3.32812Z" fill="white"/>
<path d="M29.7559 12.1592C30.7393 11.1807 31.7178 10.1963 32.7002 9.2168C34.9346 11.4424 36.5098 14.3184 37.1777 17.4004C37.7998 20.2285 37.6689 23.2139 36.8105 25.9785C35.6318 24.8008 34.4561 23.6201 33.2754 22.4434C33.5459 20.0303 33.1455 17.5352 32.0547 15.3594C31.4707 14.1748 30.6787 13.1016 29.7559 12.1592Z" fill="white"/>
</svg>
