<svg width="20" height="27" viewBox="0 0 20 27" fill="none" xmlns="http://www.w3.org/2000/svg">
<path d="M9.5675 1.04872C10.4794 0.826844 11.4925 1.35059 11.8412 2.22122C11.9769 2.54372 12.0306 2.90247 11.9737 3.24934C13.6969 3.70184 15.2369 4.77309 16.3 6.19872C17.2481 7.45684 17.8331 8.98434 17.9669 10.5543C18.0094 11.0131 17.9988 11.4743 18 11.9343C18.0006 14.6237 17.9988 17.3125 18.0006 20.0018C17.9844 20.4881 18.3775 20.9425 18.8625 20.9893C19.2406 21.0137 19.6206 20.9931 20 21C20 21.6668 20 22.3331 20 23C17.6044 23.0006 15.2087 22.9993 12.8137 23C13.0469 23.63 13.0588 24.3362 12.8344 24.9706C12.5213 25.8843 11.745 26.625 10.8131 26.8837C9.85 27.1681 8.75563 26.9093 8.01313 26.235C7.11313 25.4575 6.7525 24.1156 7.18625 23C4.79125 22.9993 2.39563 23.0006 0 23C0 22.3331 0 21.6668 0 21C0.35625 20.9962 0.7125 21.0068 1.06812 20.9956C1.4775 20.9825 1.85313 20.68 1.96063 20.2868C2.01438 20.0906 1.99812 19.8856 2 19.685C1.99937 17.0618 2 14.4381 2 11.815C2.0025 11.21 1.98187 10.6025 2.06312 10.0012C2.26875 8.32684 3.0325 6.73122 4.195 5.51059C5.22687 4.41997 6.56937 3.62059 8.02687 3.25434C7.85437 2.26309 8.58938 1.24309 9.5675 1.04872ZM5.36 7.18434C4.48187 8.24684 3.99562 9.62122 4.00062 10.9993C3.99937 13.8962 4 16.7937 4 19.6912C4.0175 20.1343 3.96688 20.5812 3.81375 21C7.93813 21 12.0619 21 16.1863 21C15.9363 20.3612 16.01 19.6681 16 18.9987C15.9987 16.3956 16.0025 13.7925 15.9981 11.1893C15.9838 8.87997 14.6275 6.60872 12.5406 5.58934C11.5462 5.08872 10.405 4.91684 9.30188 5.02559C7.77313 5.19622 6.32937 5.99122 5.36 7.18434ZM9.82375 23.015C9.33312 23.0868 8.95562 23.5725 9.0025 24.0656C9.0175 24.6025 9.53125 25.0506 10.065 24.9975C10.6038 24.9831 11.0506 24.4681 10.9975 23.9343C10.9837 23.3543 10.3887 22.8956 9.82375 23.015Z" fill="white"/>
</svg>
