<svg width="42" height="42" viewBox="0 0 42 42" fill="none" xmlns="http://www.w3.org/2000/svg">
<path d="M4.33887 10.5859C4.32617 7.11328 4.33691 3.64063 4.33301 0.167969C5.72461 1.55469 7.11133 2.94531 8.50293 4.33203C11.4219 2.13965 14.9238 0.733398 18.5518 0.3125C22.2578 -0.125 26.083 0.445313 29.4873 1.98047C32.9248 3.51563 35.9248 6.00781 38.0791 9.09375C41.0117 13.251 42.3145 18.5127 41.6709 23.5586C41.1836 27.5967 39.458 31.4697 36.8027 34.5488C34.3945 37.3613 31.2275 39.5225 27.7207 40.7148C23.166 42.2861 18.0635 42.1885 13.5693 40.4551C10.9932 39.4697 8.62012 37.9609 6.62695 36.0557C3.95215 33.5098 1.9668 30.2432 0.962891 26.6895C0.431641 24.8428 0.175781 22.9209 0.166992 21.001C1.55566 21 2.94434 21 4.33301 21.001C4.33203 24.1846 5.25 27.3662 6.98438 30.0381C8.88086 32.9912 11.7373 35.3135 15.0166 36.5615C18.1494 37.7686 21.6484 37.9844 24.9111 37.2051C28.5576 36.3467 31.877 34.1963 34.167 31.2344C36.6738 28.0352 37.917 23.8936 37.624 19.8428C37.3945 16.3037 35.9893 12.8555 33.6787 10.166C31.5518 7.66504 28.666 5.81836 25.501 4.94629C22.4121 4.09082 19.0742 4.12695 16.0176 5.10059C14.4092 5.60449 12.8828 6.36523 11.5 7.32812C12.5791 8.41602 13.6689 9.49512 14.749 10.582C11.2793 10.5869 7.80859 10.5791 4.33887 10.5859Z" fill="white"/>
<path d="M25.0566 13.6563C26.2881 13.4834 27.6181 13.6084 28.6953 14.2715C29.7402 14.919 30.4199 16.0342 30.7324 17.2031C31.1699 18.791 30.999 20.4541 31.0342 22.0791C31.0508 23.8057 30.7578 25.6856 29.5303 26.9902C28.5742 28.0547 27.0742 28.4336 25.6875 28.3477C24.4492 28.3037 23.1904 27.8135 22.3906 26.8408C21.2636 25.541 20.9912 23.7432 21.0078 22.0772C21.0449 20.3965 20.8603 18.6729 21.3496 17.0371C21.6836 15.8789 22.4033 14.793 23.4668 14.1904C23.957 13.9151 24.5019 13.7422 25.0566 13.6563ZM25.7265 16.1729C25.29 16.2324 24.916 16.5361 24.7324 16.9307C24.4306 17.5557 24.3828 18.2637 24.3535 18.9463C24.3428 20.1192 24.3525 21.292 24.3486 22.4649C24.3584 23.2402 24.3574 24.0391 24.6308 24.7754C24.7754 25.1787 25.0654 25.5547 25.4824 25.6992C26.0049 25.8818 26.6582 25.8086 27.0508 25.3897C27.4189 24.9981 27.5478 24.4531 27.6269 23.9375C27.7422 23.0625 27.6963 22.1787 27.706 21.2988C27.6963 20.3555 27.7304 19.4111 27.6748 18.4688C27.6181 17.8369 27.5166 17.1621 27.1201 16.6445C26.7998 16.2246 26.2285 16.0869 25.7265 16.1729Z" fill="white"/>
<path d="M16.2041 13.8467C16.3633 13.7832 16.5371 13.7803 16.7071 13.7705C16.708 18.5674 16.708 23.3643 16.7071 28.1611C15.5948 28.1621 14.4834 28.1621 13.3711 28.1611C13.3692 24.6182 13.3711 21.0762 13.3701 17.5342C12.2774 17.8545 11.1856 18.1768 10.0918 18.4922C10.0918 17.6494 10.0899 16.8057 10.0928 15.9629C12.1299 15.2598 14.167 14.5547 16.2041 13.8467Z" fill="white"/>
</svg>
