<svg width="41" height="41" viewBox="0 0 41 41" fill="none" xmlns="http://www.w3.org/2000/svg">
<path d="M19.0234 1.75584C21.8721 0.633768 25.0547 0.395487 28.0439 1.05174C31.0537 1.70799 33.8486 3.29295 35.9717 5.52244C38.0459 7.68162 39.4805 10.4482 40.0342 13.3916C40.585 16.2763 40.3047 19.3154 39.2178 22.0449C37.8887 25.4219 35.3418 28.2969 32.1543 30.0302C29.3047 31.6006 25.9531 32.2217 22.7285 31.8125C19.8438 31.458 17.0732 30.2617 14.8262 28.4209C10.6748 32.5703 6.52441 36.7207 2.375 40.8711C1.62598 40.123 0.876953 39.374 0.12793 38.625C4.2793 34.4746 8.42969 30.3252 12.5791 26.1738C10.5674 23.7265 9.33399 20.6533 9.1084 17.4931C8.87207 14.415 9.57129 11.2724 11.1094 8.59471C12.8662 5.50291 15.7061 3.04197 19.0234 1.75584ZM24.0225 3.83201C20.4102 3.99607 16.9268 5.83787 14.7471 8.72068C12.9873 11.0078 12.0752 13.9209 12.1992 16.8027C12.2959 19.6387 13.4023 22.4248 15.2793 24.5527C17.0293 26.5576 19.4375 27.9795 22.043 28.5302C24.9238 29.1523 28.0244 28.7314 30.6172 27.3242C33.0186 26.04 34.9717 23.9443 36.085 21.459C37.3477 18.6728 37.5273 15.4199 36.5986 12.5068C35.7227 9.72361 33.8281 7.2783 31.3555 5.73045C29.1885 4.35252 26.584 3.69236 24.0225 3.83201Z" fill="white"/>
</svg>
