<svg width="40" height="41" viewBox="0 0 40 41" fill="none" xmlns="http://www.w3.org/2000/svg">
<path d="M15.0623 0.000618786C18.1874 -0.000323373 21.3126 -0.000323171 24.4368 0.00156115C24.7684 1.69274 25.0944 3.38391 25.4289 5.07414C27.0626 5.68749 28.5926 6.56935 29.9493 7.66791C31.5689 7.1045 33.1913 6.55051 34.8109 5.98709C36.3767 8.69486 37.937 11.4045 39.5 14.1132C38.2008 15.2447 36.8996 16.3725 35.6013 17.504C35.8972 19.2188 35.8972 20.9797 35.6004 22.6944C36.8987 23.8259 38.1998 24.9556 39.5 26.0843C37.936 28.7939 36.3777 31.5064 34.809 34.2123C33.1894 33.6479 31.5661 33.0921 29.9446 32.5324C28.5907 33.631 27.0607 34.5109 25.4279 35.1243C25.0944 36.8155 24.7675 38.5066 24.4368 40.1978C21.3116 40.1997 18.1874 40.1997 15.0623 40.1978C14.7316 38.5076 14.4037 36.8155 14.0721 35.1252C12.4431 34.5053 10.9102 33.6347 9.56008 32.5324C7.93674 33.0939 6.31246 33.6564 4.68724 34.2113C3.12514 31.5036 1.5621 28.7949 0 26.0871C1.29924 24.9556 2.60413 23.8297 3.89865 22.6935C3.59999 20.9787 3.60187 19.2169 3.89771 17.5022C2.6013 16.3697 1.29924 15.2429 0 14.1132C1.56116 11.4036 3.1242 8.6958 4.6863 5.98804C6.31246 6.54297 7.9358 7.10544 9.56008 7.66602C10.9102 6.5637 12.4421 5.6922 14.0711 5.07414C14.4037 3.38391 14.7297 1.69179 15.0623 0.000618786ZM18.4776 12.1611C15.5974 12.5935 13.0649 14.7284 12.1435 17.4899C11.4953 19.3723 11.5782 21.496 12.3818 23.3181C13.079 24.9188 14.3142 26.2784 15.8424 27.1225C17.2208 27.8998 18.8347 28.2418 20.41 28.1099C21.9994 27.9837 23.5464 27.3694 24.7854 26.365C26.2353 25.2034 27.2623 23.5263 27.626 21.7042C27.984 19.9555 27.7419 18.0882 26.9354 16.494C26.1571 14.9376 24.8579 13.6478 23.2949 12.8828C21.8157 12.1498 20.1066 11.902 18.4776 12.1611Z" fill="white"/>
</svg>
