<svg width="40" height="42" viewBox="0 0 40 42" fill="none" xmlns="http://www.w3.org/2000/svg">
<path d="M15.6055 0.688477C18.5352 0.6875 21.4648 0.6875 24.3936 0.688477C24.7744 2.66016 25.1719 4.62988 25.5703 6.59863C27.0352 7.1709 28.3916 8.00098 29.6152 8.98633C31.541 8.3457 33.4453 7.64356 35.3818 7.03516C36.8184 9.58984 38.3379 12.0977 39.7754 14.6514C38.3105 15.9736 36.8105 17.2549 35.332 18.5605C35.459 19.3682 35.624 20.1758 35.6201 20.9971C35.624 21.8203 35.459 22.6299 35.332 23.4395C36.8105 24.7451 38.3115 26.0264 39.7754 27.3486C38.3379 29.9023 36.8184 32.4092 35.3818 34.9648C33.4473 34.3535 31.541 33.6602 29.6201 33.0107C28.3945 33.9951 27.0371 34.8271 25.5703 35.4004C25.1709 37.3691 24.7734 39.3389 24.3936 41.3115C21.4648 41.3125 18.5352 41.3125 15.6064 41.3115C15.2227 39.3379 14.832 37.3643 14.4248 35.3945C12.957 34.8252 11.6074 33.9854 10.375 33.0107C8.45703 33.667 6.55176 34.3594 4.61719 34.9629C3.18262 32.4072 1.66113 29.9023 0.225586 27.3477C1.69238 26.0303 3.18652 24.7441 4.66797 23.4434C4.54199 22.6328 4.375 21.8223 4.37891 20.998C4.375 20.1738 4.54297 19.3643 4.66797 18.5537C3.18359 17.2568 1.69238 15.9678 0.225586 14.6523C1.66016 12.0977 3.18262 9.59277 4.61621 7.03711C6.55273 7.63965 8.45899 8.33398 10.377 8.98926C11.6074 8.00977 12.96 7.1748 14.4268 6.60254C14.8291 4.63281 15.2246 2.66211 15.6055 0.688477ZM18.1445 3.81348C17.8164 5.47266 17.5205 7.13867 17.167 8.79199C16.1885 9.12109 15.1943 9.42676 14.2813 9.91797C13.0029 10.5566 11.8916 11.4697 10.8662 12.4551C9.25293 11.9102 7.64648 11.3467 6.03516 10.7949C5.41699 11.8525 4.79785 12.9092 4.18066 13.9678C5.46875 15.0898 6.70117 16.2754 8.03711 17.3398C7.32129 19.71 7.32129 22.2891 8.03711 24.6592C6.70117 25.7246 5.46875 26.9102 4.18066 28.0322C4.79883 29.0898 5.41699 30.1475 6.03613 31.2051C7.64746 30.6543 9.25293 30.0869 10.8662 29.5449C12.0771 30.7266 13.4482 31.7656 15.0137 32.4316C15.709 32.7451 16.4453 32.9521 17.165 33.2002C17.5205 34.8564 17.8154 36.5254 18.1455 38.1865C19.3818 38.1875 20.6182 38.1875 21.8545 38.1865C22.1826 36.5273 22.4795 34.8613 22.832 33.207C23.3662 33.0234 23.9072 32.8594 24.4355 32.6611C26.2188 32.002 27.7871 30.873 29.1328 29.5449C30.751 30.0762 32.3535 30.6514 33.9639 31.2041C34.585 30.1465 35.2031 29.0869 35.8213 28.0283C34.5469 26.9121 33.3037 25.7607 32.0127 24.6641C32.1221 24.123 32.2451 23.585 32.3379 23.041C32.6377 21.1445 32.5205 19.1797 31.9619 17.3408C33.2988 16.2773 34.5312 15.0908 35.8203 13.9697C35.2021 12.9111 34.585 11.8525 33.9639 10.7959C32.3555 11.3516 30.75 11.918 29.1348 12.4551C28.0791 11.4316 26.918 10.499 25.5918 9.84863C24.7158 9.38867 23.7646 9.10742 22.832 8.78711C22.4775 7.13477 22.1836 5.4707 21.8545 3.81348C20.6182 3.8125 19.3818 3.8125 18.1445 3.81348Z" fill="white"/>
<path d="M18.9736 13.2559C20.6269 13.0332 22.3486 13.3613 23.8018 14.1816C25.3828 15.0664 26.6416 16.5127 27.291 18.2051C27.8994 19.7705 27.9756 21.5361 27.5078 23.1494C27 24.9307 25.8291 26.5088 24.2812 27.5254C22.8301 28.4902 21.0459 28.9395 19.3096 28.7803C17.8262 28.6524 16.3867 28.0781 15.2148 27.1611C13.8896 26.1328 12.9043 24.6719 12.4639 23.0527C11.9512 21.2002 12.1602 19.1602 13.0449 17.4541C14.1855 15.2041 16.4668 13.5732 18.9736 13.2559ZM19.1641 16.3897C18.0195 16.5869 16.9619 17.2315 16.2646 18.1602C15.5039 19.1504 15.1826 20.4541 15.3652 21.6865C15.543 22.9756 16.2939 24.1709 17.3779 24.8897C18.3369 25.541 19.5449 25.8018 20.6894 25.6338C21.999 25.4531 23.2129 24.6777 23.9287 23.5654C24.5674 22.5918 24.8115 21.376 24.6211 20.2295C24.4336 19.04 23.7607 17.9365 22.7891 17.2256C21.7637 16.4629 20.4189 16.1602 19.1641 16.3897Z" fill="white"/>
</svg>
