<svg width="46" height="38" viewBox="0 0 46 38" fill="none" xmlns="http://www.w3.org/2000/svg">
<path d="M27.167 0.250977C33.4189 6.01855 39.6689 11.7871 45.916 17.5586C39.667 23.5947 33.4189 29.6318 27.168 35.665C27.166 32.1934 27.167 28.7217 27.167 25.25C23.1797 25.2568 19.1729 25.5703 15.2822 26.4775C11.6289 27.3311 8.03711 28.7285 5.04492 31.0332C2.83691 32.752 0.911133 35 0.0830078 37.7148C0.199219 33.9346 0.998047 30.1816 2.34766 26.6523C3.42871 23.876 4.91992 21.2441 6.86523 18.9805C9.07617 16.3867 11.8926 14.3184 15.0205 12.9688C18.834 11.3027 23.0264 10.6738 27.167 10.665C27.167 7.19336 27.166 3.72266 27.167 0.250977Z" fill="white"/>
</svg>
