<svg width="36" height="36" viewBox="0 0 36 36" fill="none" xmlns="http://www.w3.org/2000/svg">
<path d="M0.8125 0.8125V35.1875H35.1875V0.8125H0.8125ZM3.9375 3.9375H32.0625V32.0625H3.9375V3.9375ZM24.25 8.625C23.8193 8.62537 23.3933 8.71477 22.9987 8.8876C22.6042 9.06044 22.2497 9.31297 21.9574 9.62934C21.6651 9.94571 21.4413 10.3191 21.3002 10.726C21.159 11.133 21.1036 11.5647 21.1372 11.9941L13.813 15.6562C13.2432 15.1537 12.5098 14.876 11.75 14.875C10.9212 14.875 10.1263 15.2042 9.54029 15.7903C8.95424 16.3763 8.625 17.1712 8.625 18C8.625 18.8288 8.95424 19.6237 9.54029 20.2097C10.1263 20.7958 10.9212 21.125 11.75 21.125C12.5098 21.124 13.2432 20.8463 13.813 20.3438L21.1372 24.0059C21.1036 24.4353 21.159 24.867 21.3002 25.274C21.4413 25.6809 21.6651 26.0543 21.9574 26.3707C22.2497 26.687 22.6042 26.9396 22.9987 27.1124C23.3933 27.2852 23.8193 27.3746 24.25 27.375C25.0788 27.375 25.8737 27.0458 26.4597 26.4597C27.0458 25.8737 27.375 25.0788 27.375 24.25C27.375 23.4212 27.0458 22.6263 26.4597 22.0403C25.8737 21.4542 25.0788 21.125 24.25 21.125C23.4902 21.126 22.7568 21.4037 22.187 21.9062L14.8628 18.2441C14.8755 18.0816 14.8755 17.9184 14.8628 17.7559L22.187 14.0938C22.7568 14.5963 23.4902 14.874 24.25 14.875C25.0788 14.875 25.8737 14.5458 26.4597 13.9597C27.0458 13.3737 27.375 12.5788 27.375 11.75C27.375 10.9212 27.0458 10.1263 26.4597 9.54029C25.8737 8.95424 25.0788 8.625 24.25 8.625Z" fill="white"/>
</svg>
