<svg width="38" height="40" viewBox="0 0 38 40" fill="none" xmlns="http://www.w3.org/2000/svg">
<path d="M13.5312 0.383806C14.2832 0.108416 15.0957 0.172869 15.8818 0.167009C18.3516 0.169939 20.8213 0.159197 23.291 0.171892C24.9414 0.201189 26.4853 1.33107 27.0586 2.87111C27.249 3.35744 27.3311 3.88088 27.333 4.40138C27.334 5.76759 27.333 7.13283 27.333 8.49904C30.8057 8.50197 34.2773 8.49904 37.75 8.50002C37.75 18.917 37.75 29.333 37.75 39.75C25.25 39.75 12.75 39.75 0.25 39.75C0.25 29.333 0.25 18.917 0.25 8.50002C3.72266 8.49904 7.19434 8.50197 10.667 8.49904C10.6699 7.06642 10.6592 5.63381 10.6729 4.20119C10.7051 2.49513 11.916 0.910173 13.5312 0.383806ZM14.834 4.334C14.833 5.7217 14.834 7.11037 14.833 8.49904C17.6113 8.50099 20.3887 8.50099 23.167 8.49904C23.166 7.11037 23.167 5.7217 23.166 4.334C20.3887 4.33302 17.6113 4.33302 14.834 4.334ZM12.2812 12.7197C11.3281 12.9219 10.6064 13.8662 10.6699 14.8408C10.6924 15.8154 11.4922 16.6944 12.46 16.8115C13.3838 16.959 14.3535 16.3906 14.6846 15.5186C14.9844 14.7871 14.8145 13.8955 14.2686 13.3252C13.7744 12.7901 12.9902 12.5508 12.2812 12.7197ZM24.7783 12.7207C23.957 12.9014 23.292 13.626 23.1885 14.461C23.0684 15.2383 23.4414 16.0586 24.1006 16.4854C24.7197 16.9053 25.5684 16.9453 26.2256 16.5889C26.8359 16.2686 27.2666 15.6299 27.3223 14.9414C27.3936 14.2442 27.0801 13.5244 26.5215 13.1016C26.0371 12.7207 25.3779 12.5801 24.7783 12.7207Z" fill="white"/>
</svg>
