<svg width="36" height="36" viewBox="0 0 36 36" fill="none" xmlns="http://www.w3.org/2000/svg">
<path fill-rule="evenodd" clip-rule="evenodd" d="M30.5 5.5H5.5V30.5H30.5V5.5ZM0.8125 0.8125V35.1875H35.1875V0.8125H0.8125Z" fill="white"/>
<path d="M12.8136 24.4562C11.8011 24.4562 10.9948 24.2937 10.3948 23.9687C9.79482 23.6312 9.33232 23.1625 9.00732 22.5625C8.69482 21.95 8.48857 21.225 8.38857 20.3875C8.30107 19.5375 8.25732 18.5937 8.25732 17.5562C8.25732 16.5437 8.30107 15.6125 8.38857 14.7625C8.48857 13.9 8.69482 13.1625 9.00732 12.55C9.33232 11.9375 9.79482 11.4625 10.3948 11.125C10.9948 10.775 11.8011 10.6 12.8136 10.6C13.7761 10.6 14.5323 10.7562 15.0823 11.0687C15.6448 11.3812 16.0636 11.7812 16.3386 12.2687C16.6136 12.7437 16.7823 13.2625 16.8448 13.825C16.9198 14.375 16.9573 14.8937 16.9573 15.3812H14.2573C14.2573 14.4062 14.1386 13.7 13.9011 13.2625C13.6761 12.8125 13.2573 12.5875 12.6448 12.5875C12.3073 12.5875 12.0261 12.6812 11.8011 12.8687C11.5886 13.0437 11.4198 13.3375 11.2948 13.75C11.1698 14.15 11.0823 14.6812 11.0323 15.3437C10.9823 15.9937 10.9573 16.7937 10.9573 17.7437C10.9573 18.7562 10.9886 19.575 11.0511 20.2C11.1261 20.825 11.2323 21.3125 11.3698 21.6625C11.5198 22 11.7011 22.2312 11.9136 22.3562C12.1386 22.4687 12.3948 22.525 12.6823 22.525C12.9198 22.525 13.1386 22.4875 13.3386 22.4125C13.5511 22.325 13.7323 22.1625 13.8823 21.925C14.0323 21.675 14.1511 21.3312 14.2386 20.8937C14.3261 20.4437 14.3698 19.8562 14.3698 19.1312H17.0698C17.0698 19.8687 17.0136 20.5625 16.9011 21.2125C16.7886 21.85 16.5761 22.4125 16.2636 22.9C15.9636 23.375 15.5323 23.7562 14.9698 24.0437C14.4198 24.3187 13.7011 24.4562 12.8136 24.4562Z" fill="white"/>
<path d="M23.5406 24.4562C22.5281 24.4562 21.7219 24.2937 21.1219 23.9687C20.5219 23.6312 20.0594 23.1625 19.7344 22.5625C19.4219 21.95 19.2156 21.225 19.1156 20.3875C19.0281 19.5375 18.9844 18.5937 18.9844 17.5562C18.9844 16.5437 19.0281 15.6125 19.1156 14.7625C19.2156 13.9 19.4219 13.1625 19.7344 12.55C20.0594 11.9375 20.5219 11.4625 21.1219 11.125C21.7219 10.775 22.5281 10.6 23.5406 10.6C24.5031 10.6 25.2594 10.7562 25.8094 11.0687C26.3719 11.3812 26.7906 11.7812 27.0656 12.2687C27.3406 12.7437 27.5094 13.2625 27.5719 13.825C27.6469 14.375 27.6844 14.8937 27.6844 15.3812H24.9844C24.9844 14.4062 24.8656 13.7 24.6281 13.2625C24.4031 12.8125 23.9844 12.5875 23.3719 12.5875C23.0344 12.5875 22.7531 12.6812 22.5281 12.8687C22.3156 13.0437 22.1469 13.3375 22.0219 13.75C21.8969 14.15 21.8094 14.6812 21.7594 15.3437C21.7094 15.9937 21.6844 16.7937 21.6844 17.7437C21.6844 18.7562 21.7156 19.575 21.7781 20.2C21.8531 20.825 21.9594 21.3125 22.0969 21.6625C22.2469 22 22.4281 22.2312 22.6406 22.3562C22.8656 22.4687 23.1219 22.525 23.4094 22.525C23.6469 22.525 23.8656 22.4875 24.0656 22.4125C24.2781 22.325 24.4594 22.1625 24.6094 21.925C24.7594 21.675 24.8781 21.3312 24.9656 20.8937C25.0531 20.4437 25.0969 19.8562 25.0969 19.1312H27.7969C27.7969 19.8687 27.7406 20.5625 27.6281 21.2125C27.5156 21.85 27.3031 22.4125 26.9906 22.9C26.6906 23.375 26.2594 23.7562 25.6969 24.0437C25.1469 24.3187 24.4281 24.4562 23.5406 24.4562Z" fill="white"/>
</svg>
