<svg width="44" height="36" viewBox="0 0 44 36" fill="none" xmlns="http://www.w3.org/2000/svg">
<path d="M0.125 0.03125C13.1455 0.03125 26.166 0.03125 39.1875 0.03125C39.1875 10.4482 39.1875 20.8643 39.1875 31.2812C26.167 31.2812 13.1455 31.2812 0.125 31.2812C0.125 20.8643 0.125 10.4482 0.125 0.03125ZM14.9688 7.8418C14.9688 13.0498 14.9688 18.2588 14.9688 23.4678C19.3613 20.8682 23.751 18.2617 28.1396 15.6562C23.751 13.0488 19.3594 10.4473 14.9688 7.8418Z" fill="white"/>
<path d="M41.5312 4.71875C42.3125 4.71875 43.0938 4.71875 43.875 4.71875C43.875 15.1357 43.875 25.5518 43.875 35.9688C30.8545 35.9688 17.833 35.9688 4.8125 35.9688C4.8125 34.9268 4.8125 33.8857 4.8125 32.8438C16.791 32.8428 28.7705 32.8438 40.749 32.8438C41.0117 23.4688 41.2695 14.0938 41.5312 4.71875Z" fill="white"/>
</svg>
