<svg width="48" height="26" viewBox="0 0 48 26" fill="none" xmlns="http://www.w3.org/2000/svg">
<path d="M14.1816 2.58987C18.7949 0.623074 24.0059 -0.0800503 28.9277 1.03909C32.5918 1.81839 36.043 3.41018 39.1836 5.42971C42.4473 7.52737 45.4316 10.0684 47.9746 13C45.4902 15.8535 42.5859 18.334 39.418 20.4004C34.8418 23.3946 29.5215 25.4375 24.0039 25.4981C18.3965 25.4336 12.9922 23.3242 8.36133 20.2539C5.28125 18.2149 2.44922 15.791 0.0273438 12.9981C3.91602 8.56643 8.75 4.91214 14.1816 2.58987ZM14.5645 5.86722C12.4844 9.38089 12.5801 14.0489 14.8555 17.4473C16.8145 20.4785 20.3633 22.4356 23.9844 22.3672C26.4922 22.4121 28.9902 21.5098 30.9238 19.9199C33.125 18.1289 34.5742 15.4532 34.8652 12.6309C35.1172 10.2832 34.6367 7.80471 33.3359 5.82034C31.3398 4.87698 29.207 4.21682 27.0273 3.86917C22.791 3.16995 18.416 4.05081 14.5645 5.86722ZM4.51953 13C6.76758 15.2871 9.31445 17.2774 12.0801 18.9024C10.1016 15.7598 9.45117 11.8301 10.3223 8.21878C8.23828 9.61721 6.28906 11.2188 4.51953 13ZM37.6777 8.22073C38.5488 11.8301 37.8965 15.7578 35.9219 18.9004C38.6934 17.2871 41.2285 15.2813 43.4844 13.002C41.7129 11.2227 39.7656 9.61722 37.6777 8.22073Z" fill="white"/>
<path d="M22.918 6.87896C24.293 6.54888 25.8125 6.87701 26.9141 7.76959C27.9668 8.59966 28.6328 9.90045 28.6797 11.2422C28.752 12.7169 28.0703 14.2012 26.9063 15.1094C25.9297 15.8907 24.6289 16.252 23.3887 16.0821C21.8613 15.8946 20.4707 14.8926 19.7988 13.5118C19.1797 12.2754 19.1543 10.7618 19.7305 9.50591C20.3125 8.20123 21.5274 7.20318 22.918 6.87896Z" fill="white"/>
</svg>
