<svg width="38" height="38" viewBox="0 0 38 38" fill="none" xmlns="http://www.w3.org/2000/svg">
<path d="M18.75 0C8.4375 0 0 8.4375 0 18.75C0 29.0625 8.4375 37.5 18.75 37.5C29.0625 37.5 37.5 29.0625 37.5 18.75C37.5 8.4375 29.0625 0 18.75 0ZM18.75 33.75C10.4813 33.75 3.75 27.0187 3.75 18.75C3.75 10.4813 10.4813 3.75 18.75 3.75C27.0187 3.75 33.75 10.4813 33.75 18.75C33.75 27.0187 27.0187 33.75 18.75 33.75ZM19.6875 9.375H16.875V20.625L26.625 26.625L28.125 24.1875L19.6875 19.125V9.375Z" fill="white"/>
</svg>
