<svg width="21" height="22" viewBox="0 0 21 22" fill="none" xmlns="http://www.w3.org/2000/svg">
<path d="M7.0468 2.89804L2.55443 10.4547C1.67078 11.9411 1.39192 13.7311 1.7792 15.431C2.16648 17.1309 3.18817 18.6014 4.61952 19.5191C6.05086 20.4367 7.7746 20.7263 9.41155 20.3241C11.0485 19.9219 12.4645 18.861 13.3482 17.3746L18.9012 8.03383C19.4903 7.0429 19.6762 5.84954 19.418 4.71627C19.1598 3.58301 18.4787 2.60267 17.5245 1.99091C16.5702 1.37916 15.4211 1.1861 14.3298 1.45422C13.2385 1.72234 12.2944 2.42966 11.7053 3.42059L6.60658 11.9972C6.46074 12.2426 6.36285 12.5153 6.31851 12.7999C6.27418 13.0846 6.28425 13.3755 6.34817 13.656C6.4121 13.9366 6.52861 14.2013 6.69105 14.4351C6.8535 14.669 7.0587 14.8672 7.29495 15.0187C7.77206 15.3246 8.34664 15.4211 8.89229 15.2871C9.43794 15.153 9.90996 14.7993 10.2045 14.3039L14.1927 7.59535" stroke="#F9FCFD" stroke-width="2.01417" stroke-linecap="round" stroke-linejoin="round"/>
</svg>
