<svg width="15" height="15" viewBox="0 0 15 15" fill="none" xmlns="http://www.w3.org/2000/svg">
<g clip-path="url(#clip0_128_14761)">
<path d="M6.99468 3.81379C6.99468 3.44835 7.28868 3.15435 7.65412 3.15435C8.01956 3.15435 8.31356 3.44835 8.31356 3.81379V7.1989L10.6573 8.75957C10.9595 8.9629 11.042 9.3723 10.8167 9.67454C10.6381 9.97678 10.2287 10.0592 9.92643 9.83391L7.28868 8.07541C7.10459 7.97649 6.99468 7.77042 6.99468 7.52587V3.81379ZM7.65412 0.516602C11.5393 0.516602 14.6881 3.66542 14.6881 7.5506C14.6881 11.4358 11.5393 14.5846 7.65412 14.5846C3.76893 14.5846 0.620117 11.4358 0.620117 7.5506C0.620117 3.66542 3.76893 0.516602 7.65412 0.516602ZM1.93899 7.5506C1.93899 10.7077 4.49706 13.2657 7.65412 13.2657C10.8112 13.2657 13.3692 10.7077 13.3692 7.5506C13.3692 4.39355 10.8112 1.83548 7.65412 1.83548C4.49706 1.83548 1.93899 4.39355 1.93899 7.5506Z" fill="white"/>
</g>
<defs>
<clipPath id="clip0_128_14761">
<rect width="14.068" height="14.068" fill="white" transform="translate(0.617676 0.516602)"/>
</clipPath>
</defs>
</svg>
