<svg width="19" height="20" viewBox="0 0 19 20" fill="none" xmlns="http://www.w3.org/2000/svg">
<mask id="path-1-outside-1_3349_13831" maskUnits="userSpaceOnUse" x="0.773438" y="2.47736" width="18" height="15" fill="black">
<rect fill="white" x="0.773438" y="2.47736" width="18" height="15"/>
<path d="M7.55443 9.84839H3.98218L2.78761 5.1546C2.77996 5.12732 2.7753 5.09931 2.77371 5.07105C2.76041 4.64076 3.24018 4.34236 3.65589 4.53931L14.8584 9.84839L3.65589 15.1575C3.24501 15.3526 2.77129 15.0626 2.77371 14.6401C2.77493 14.6023 2.78165 14.5649 2.79365 14.5291L3.68006 11.6388"/>
</mask>
<path d="M3.98218 9.84839L2.68088 10.1796L2.93834 11.1912H3.98218V9.84839ZM2.78761 5.1546L4.0889 4.82342L4.0849 4.80768L4.08051 4.79204L2.78761 5.1546ZM2.77371 5.07105L1.43157 5.11251L1.43209 5.12947L1.43305 5.14642L2.77371 5.07105ZM3.65589 4.53931L4.23095 3.3259L4.23078 3.32581L3.65589 4.53931ZM14.8584 9.84839L15.4335 11.0618L17.9939 9.84839L15.4335 8.63498L14.8584 9.84839ZM3.65589 15.1575L3.08084 13.9441L3.07981 13.9446L3.65589 15.1575ZM2.77371 14.6401L1.43163 14.5966L1.43105 14.6145L1.43095 14.6324L2.77371 14.6401ZM2.79365 14.5291L4.06703 14.9551L4.07242 14.939L4.07741 14.9228L2.79365 14.5291ZM7.55443 8.50561H3.98218V11.1912H7.55443V8.50561ZM5.28348 9.51721L4.0889 4.82342L1.48631 5.48578L2.68088 10.1796L5.28348 9.51721ZM4.08051 4.79204C4.09912 4.8584 4.11049 4.92668 4.11437 4.99568L1.43305 5.14642C1.4401 5.27194 1.46079 5.39624 1.4947 5.51716L4.08051 4.79204ZM4.11585 5.02959C4.12598 5.35769 3.94081 5.60194 3.75279 5.71654C3.56368 5.83181 3.30955 5.86107 3.08101 5.7528L4.23078 3.32581C3.00881 2.74691 1.3839 3.56935 1.43157 5.11251L4.11585 5.02959ZM3.08084 5.75272L14.2834 11.0618L15.4335 8.63498L4.23095 3.3259L3.08084 5.75272ZM14.2834 8.63498L3.08084 13.9441L4.23095 16.3709L15.4335 11.0618L14.2834 8.63498ZM3.07981 13.9446C3.30646 13.8369 3.55847 13.8645 3.74686 13.9767C3.93261 14.0873 4.11832 14.3236 4.11646 14.6477L1.43095 14.6324C1.42231 16.1427 3.01743 16.9473 4.23198 16.3704L3.07981 13.9446ZM4.11578 14.6835C4.11278 14.7761 4.09631 14.8676 4.06703 14.9551L1.52027 14.103C1.46698 14.2622 1.43708 14.4285 1.43163 14.5966L4.11578 14.6835ZM4.07741 14.9228L4.96382 12.0325L2.3963 11.2451L1.50989 14.1353L4.07741 14.9228Z" fill="white" mask="url(#path-1-outside-1_3349_13831)"/>
</svg>
