<svg width="32" height="32" viewBox="0 0 32 32" fill="none" xmlns="http://www.w3.org/2000/svg">
<path d="M14.9987 19.9987L21.6654 15.6987L14.9987 11.3987V19.9987ZM3.33203 29.332C2.7987 29.332 2.33203 29.132 1.93203 28.732C1.53203 28.332 1.33203 27.8654 1.33203 27.332V12.032H3.33203V27.332H23.632V29.332H3.33203ZM7.33203 25.332C6.7987 25.332 6.33203 25.132 5.93203 24.732C5.53203 24.332 5.33203 23.8654 5.33203 23.332V6.06536H13.3987V3.33203C13.3987 2.7987 13.5987 2.33203 13.9987 1.93203C14.3987 1.53203 14.8654 1.33203 15.3987 1.33203H20.5987C21.132 1.33203 21.5987 1.53203 21.9987 1.93203C22.3987 2.33203 22.5987 2.7987 22.5987 3.33203V6.06536H30.6654V23.332C30.6654 23.8654 30.4654 24.332 30.0654 24.732C29.6654 25.132 29.1987 25.332 28.6654 25.332H7.33203ZM15.3987 6.06536H20.5987V3.33203H15.3987V6.06536Z" fill="white"/>
</svg>
