<svg width="25" height="20" viewBox="0 0 25 20" fill="none" xmlns="http://www.w3.org/2000/svg">
<path d="M24.1742 2.5777C23.2972 2.96615 22.354 3.22533 21.359 3.34796C22.3705 2.7474 23.1487 1.78954 23.514 0.658002C22.5674 1.21283 21.5187 1.6205 20.4031 1.83527C19.5122 0.890672 18.2415 0.304688 16.8335 0.304688C14.129 0.304688 11.9368 2.4776 11.9368 5.15696C11.9368 5.53613 11.9812 5.90535 12.0647 6.26397C7.996 6.0598 4.38729 4.12552 1.97308 1.19029C1.54884 1.90753 1.3102 2.7474 1.3102 3.63366C1.3102 5.31804 2.17261 6.8009 3.48776 7.67457C2.68501 7.65005 1.92933 7.42666 1.26778 7.0687C1.26778 7.08329 1.26778 7.10516 1.26778 7.12571C1.26778 9.47959 2.95613 11.4397 5.19401 11.8858C4.78501 11.9979 4.35282 12.0602 3.90736 12.0602C3.59117 12.0602 3.28293 12.0244 2.98464 11.9707C3.60774 13.8944 5.41541 15.3003 7.55717 15.3421C5.88141 16.6413 3.77081 17.4196 1.47592 17.4196C1.07952 17.4196 0.691738 17.397 0.308594 17.3506C2.47687 18.7234 5.05149 19.5282 7.81503 19.5282C16.8202 19.5282 21.7468 12.1331 21.7468 5.71776C21.7468 5.50762 21.7401 5.29815 21.7302 5.09134C22.6914 4.41255 23.52 3.55611 24.1742 2.5777Z" fill="#03A9F4"/>
</svg>
