<svg width="25" height="18" viewBox="0 0 25 18" fill="none" xmlns="http://www.w3.org/2000/svg">
<path d="M24.0341 14.9088C23.7985 16.1108 22.7977 17.0268 21.5613 17.1985C19.6182 17.4845 16.3798 17.828 12.7292 17.828C9.13759 17.828 5.89912 17.4845 3.897 17.1985C2.66064 17.0268 1.65931 16.1108 1.42427 14.9088C1.1887 13.5925 0.953125 11.6461 0.953125 9.24211C0.953125 6.83807 1.1887 4.89176 1.42427 3.57544C1.65985 2.37342 2.66064 1.45742 3.897 1.2857C5.84009 0.999684 9.07857 0.65625 12.7292 0.65625C16.3798 0.65625 19.5592 0.999684 21.5613 1.2857C22.7977 1.45742 23.799 2.37342 24.0341 3.57544C24.2696 4.89176 24.5642 6.83807 24.5642 9.24211C24.5052 11.6461 24.2696 13.5925 24.0341 14.9088Z" fill="url(#paint0_linear_2262_15776)"/>
<path d="M10.0742 13.3016V5.17991C10.0742 4.7812 10.5185 4.54294 10.8507 4.76457L16.9424 8.82568C17.2391 9.02315 17.2391 9.45888 16.9424 9.6569L10.8507 13.718C10.5185 13.9386 10.0742 13.7008 10.0742 13.3016Z" fill="white"/>
<path opacity="0.07" d="M10.975 4.53842L16.7651 8.39884C17.1349 8.66446 17.3839 8.90218 17.3839 9.21074C17.3839 9.51929 17.2637 9.73447 17.0002 9.92658C16.8011 10.0715 11.0732 13.8782 11.0732 13.8782C10.5898 14.2023 9.80469 14.1337 9.80469 13.0738V5.3471C9.80469 4.27118 10.6547 4.32485 10.975 4.53842Z" fill="black"/>
<path opacity="0.05" d="M17.2406 8.4053L11.1038 4.31414C10.7942 4.10754 10.3987 4.08822 10.0708 4.26423C9.74298 4.4397 9.53906 4.77938 9.53906 5.15126V13.3336C9.53906 13.7055 9.74298 14.0457 10.0708 14.2211C10.22 14.3011 10.3826 14.3403 10.5452 14.3403C10.7405 14.3403 10.9348 14.2834 11.1033 14.1712L17.24 10.0801C17.5207 9.8928 17.6881 9.57995 17.6881 9.24295C17.6887 8.90542 17.5207 8.59258 17.2406 8.4053Z" fill="black"/>
<defs>
<linearGradient id="paint0_linear_2262_15776" x1="5.14732" y1="1.66026" x2="22.0132" y2="18.5261" gradientUnits="userSpaceOnUse">
<stop stop-color="#F44F5A"/>
<stop offset="0.443" stop-color="#EE3D4A"/>
<stop offset="1" stop-color="#E52030"/>
</linearGradient>
</defs>
</svg>
