<svg width="53" height="55" viewBox="0 0 53 55" fill="none" xmlns="http://www.w3.org/2000/svg">
<g clip-path="url(#clip0_1329_8890)">
<path d="M21.3463 16.1582L14.6551 27.4135C13.339 29.6274 12.9236 32.2936 13.5004 34.8255C14.0773 37.3574 15.599 39.5476 17.7309 40.9144C19.8629 42.2812 22.4303 42.7125 24.8684 42.1135C27.3066 41.5144 29.4157 39.9342 30.7319 37.7203L39.0028 23.8077C39.8802 22.3318 40.1571 20.5543 39.7725 18.8664C39.388 17.1784 38.3735 15.7183 36.9522 14.8071C35.5309 13.8959 33.8193 13.6084 32.1939 14.0077C30.5684 14.4071 29.1623 15.4606 28.2849 16.9365L20.6906 29.711C20.4733 30.0764 20.3276 30.4827 20.2615 30.9066C20.1955 31.3305 20.2105 31.7638 20.3057 32.1817C20.4009 32.5996 20.5744 32.9939 20.8164 33.3422C21.0583 33.6904 21.364 33.9857 21.7159 34.2113V34.2113C22.4265 34.6669 23.2823 34.8107 24.095 34.611C24.9077 34.4113 25.6108 33.8846 26.0495 33.1466L31.9897 23.1546" stroke="#F9FCFD" stroke-width="3" stroke-linecap="round" stroke-linejoin="round"/>
</g>
<defs>
<clipPath id="clip0_1329_8890">
<rect width="38.1938" height="38.8449" fill="white" transform="matrix(0.841851 0.539709 -0.51101 0.859575 19.8502 0)"/>
</clipPath>
</defs>
</svg>
