<svg width="33" height="33" viewBox="0 0 33 33" fill="none" xmlns="http://www.w3.org/2000/svg">
<path d="M1.60791 26.7879V23.6886C1.60791 22.9192 1.80574 22.2213 2.2014 21.5949C2.59706 20.9684 3.14659 20.5013 3.84998 20.1936C5.4546 19.4902 6.89986 18.9846 8.18576 18.6769C9.47165 18.3691 10.796 18.2153 12.1588 18.2153C13.5217 18.2153 14.8405 18.3691 16.1154 18.6769C17.3903 18.9846 18.8301 19.4902 20.4347 20.1936C21.1381 20.5013 21.6931 20.9684 22.0998 21.5949C22.5064 22.2213 22.7098 22.9192 22.7098 23.6886V26.7879H1.60791ZM24.6881 26.7879V23.6886C24.6881 22.3038 24.3364 21.1662 23.633 20.276C22.9296 19.3858 22.0064 18.6659 20.8634 18.1164C22.3801 18.2922 23.8088 18.5505 25.1497 18.8912C26.4905 19.2319 27.5786 19.6221 28.4139 20.0617C29.1392 20.4793 29.7107 20.9959 30.1284 21.6113C30.546 22.2268 30.7549 22.9192 30.7549 23.6886V26.7879H24.6881ZM12.1588 16.204C10.7081 16.204 9.52111 15.7424 8.5979 14.8192C7.67469 13.896 7.21309 12.709 7.21309 11.2582C7.21309 9.8075 7.67469 8.62052 8.5979 7.69731C9.52111 6.7741 10.7081 6.3125 12.1588 6.3125C13.6096 6.3125 14.7966 6.7741 15.7198 7.69731C16.643 8.62052 17.1046 9.8075 17.1046 11.2582C17.1046 12.709 16.643 13.896 15.7198 14.8192C14.7966 15.7424 13.6096 16.204 12.1588 16.204ZM24.0286 11.2582C24.0286 12.709 23.567 13.896 22.6438 14.8192C21.7206 15.7424 20.5336 16.204 19.0829 16.204C18.8411 16.204 18.5718 16.1875 18.2751 16.1545C17.9783 16.1216 17.7091 16.0611 17.4673 15.9732C17.9948 15.4237 18.396 14.7477 18.6707 13.9454C18.9455 13.1431 19.0829 12.2474 19.0829 11.2582C19.0829 10.2691 18.9455 9.39535 18.6707 8.637C18.396 7.87865 17.9948 7.18075 17.4673 6.5433C17.7091 6.47736 17.9783 6.42241 18.2751 6.37844C18.5718 6.33448 18.8411 6.3125 19.0829 6.3125C20.5336 6.3125 21.7206 6.7741 22.6438 7.69731C23.567 8.62052 24.0286 9.8075 24.0286 11.2582ZM3.58621 24.8096H20.7315V23.6886C20.7315 23.3369 20.6271 22.9962 20.4182 22.6664C20.2094 22.3367 19.9511 22.1059 19.6434 21.974C18.0608 21.2706 16.7309 20.798 15.6538 20.5563C14.5768 20.3145 13.4118 20.1936 12.1588 20.1936C10.9059 20.1936 9.73542 20.3145 8.64736 20.5563C7.55929 20.798 6.22394 21.2706 4.6413 21.974C4.33357 22.1059 4.08078 22.3367 3.88295 22.6664C3.68512 22.9962 3.58621 23.3369 3.58621 23.6886V24.8096ZM12.1588 14.2257C13.0161 14.2257 13.725 13.9454 14.2855 13.3849C14.846 12.8244 15.1263 12.1155 15.1263 11.2582C15.1263 10.401 14.846 9.69209 14.2855 9.13158C13.725 8.57106 13.0161 8.2908 12.1588 8.2908C11.3016 8.2908 10.5927 8.57106 10.0322 9.13158C9.47165 9.69209 9.19139 10.401 9.19139 11.2582C9.19139 12.1155 9.47165 12.8244 10.0322 13.3849C10.5927 13.9454 11.3016 14.2257 12.1588 14.2257Z" fill="white"/>
</svg>
