<svg width="40" height="40" viewBox="0 0 40 40" fill="none" xmlns="http://www.w3.org/2000/svg">
<path d="M34.7605 2.48438H4.96354C3.59785 2.48438 2.48047 3.60176 2.48047 4.96745V34.7644C2.48047 36.1301 3.59785 37.2474 4.96354 37.2474H34.7605C36.1261 37.2474 37.2435 36.1301 37.2435 34.7644V4.96745C37.2435 3.60176 36.1261 2.48438 34.7605 2.48438ZM30.3083 17.8968L19.1345 29.0707C18.6503 29.5561 18.0146 29.7982 17.3789 29.7982C16.7433 29.7982 16.1076 29.5561 15.6234 29.0707L9.4157 22.863C8.44606 21.8933 8.44606 20.3215 9.4157 19.3519C10.3841 18.3823 11.9584 18.3823 12.9268 19.3519L17.3789 23.8028L26.7972 14.3858C27.7656 13.4161 29.3399 13.4161 30.3083 14.3858C31.2779 15.3554 31.2779 16.9272 30.3083 17.8968Z" fill="white"/>
</svg>
