<svg width="37" height="27" viewBox="0 0 37 27" fill="none" xmlns="http://www.w3.org/2000/svg">
<path d="M7.67299 0.633627C8.20533 1.16596 8.20533 2.02905 7.67299 2.56139C1.63985 8.59453 1.63985 18.3762 7.67299 24.4093C8.20533 24.9417 8.20533 25.8047 7.67299 26.3371C7.14066 26.8694 6.27757 26.8694 5.74523 26.3371C-1.35258 19.2393 -1.35258 7.73144 5.74523 0.633627C6.27757 0.101291 7.14066 0.101291 7.67299 0.633627ZM31.4487 0.633627C38.5465 7.73144 38.5465 19.2393 31.4487 26.3371C30.9164 26.8694 30.0533 26.8694 29.5209 26.3371C28.9886 25.8047 28.9886 24.9417 29.5209 24.4093C35.5541 18.3762 35.5541 8.59453 29.5209 2.56139C28.9886 2.02905 28.9886 1.16596 29.5209 0.633627C30.0533 0.101291 30.9164 0.101291 31.4487 0.633627ZM12.8137 5.77432C13.346 6.30665 13.346 7.16974 12.8137 7.70208C9.61967 10.8961 9.61967 16.0746 12.8137 19.2686C13.346 19.801 13.346 20.6641 12.8137 21.1964C12.2813 21.7287 11.4183 21.7287 10.8859 21.1964C6.62724 16.9377 6.62724 10.033 10.8859 5.77432C11.4183 5.24198 12.2813 5.24198 12.8137 5.77432ZM26.308 5.77432C30.5667 10.033 30.5667 16.9377 26.308 21.1964C25.7757 21.7287 24.9126 21.7287 24.3802 21.1964C23.8479 20.6641 23.8479 19.801 24.3802 19.2686C27.5743 16.0746 27.5743 10.8961 24.3802 7.70208C23.8479 7.16974 23.8479 6.30665 24.3802 5.77432C24.9126 5.24198 25.7757 5.24198 26.308 5.77432ZM18.597 10.7591C20.1026 10.7591 21.3232 11.9797 21.3232 13.4854C21.3232 14.991 20.1026 16.2116 18.597 16.2116C17.0913 16.2116 15.8707 14.991 15.8707 13.4854C15.8707 11.9797 17.0913 10.7591 18.597 10.7591Z" fill="white"/>
</svg>
