<svg width="37" height="38" viewBox="0 0 37 38" fill="none" xmlns="http://www.w3.org/2000/svg">
<path d="M19.2844 10.8583V4.99851C19.2844 4.3953 18.7953 3.90625 18.1921 3.90625C17.5889 3.90625 17.0998 4.3953 17.0998 4.99851V10.4059L15.4664 12.0393C15.0399 12.4658 15.0399 13.1575 15.4664 13.5841C15.6797 13.7973 15.9592 13.9039 16.2388 13.9039C16.5184 13.9039 16.7979 13.7973 17.0112 13.5841L18.9645 11.6307C19.1693 11.4258 19.2844 11.1479 19.2844 10.8583Z" fill="white"/>
<path d="M32.9869 28.7151V26.4062C32.9869 25.803 32.4979 25.314 31.8946 25.314H19.283V21.6626C24.7596 21.113 29.0495 16.4776 29.0495 10.8587C29.0495 4.87123 24.1784 0 18.1908 0C12.2032 0 7.33205 4.87123 7.33205 10.8587C7.33205 16.4776 11.6219 21.113 17.0985 21.6626V25.314H4.48691C3.8837 25.314 3.39465 25.803 3.39465 26.4062V28.7151C1.52661 29.1716 0.135742 30.8587 0.135742 32.8653C0.135742 35.2213 2.05255 37.1381 4.40851 37.1381C6.76447 37.1381 8.68128 35.2213 8.68128 32.8653C8.68128 30.9152 7.36768 29.2673 5.57917 28.7568V27.4985H17.0984V28.7345C15.2699 29.2184 13.9179 30.8867 13.9179 32.8652C13.9179 35.2211 15.8347 37.1379 18.1907 37.1379C20.5466 37.1379 22.4634 35.2211 22.4634 32.8652C22.4634 30.8866 21.1114 29.2184 19.2829 28.7345V27.4985H30.8021V28.7568C29.0137 29.2673 27.7 30.9152 27.7 32.8653C27.7 35.2213 29.6168 37.1381 31.9728 37.1381C34.3288 37.1381 36.2456 35.2213 36.2456 32.8653C36.2458 30.8587 34.8549 29.1716 32.9869 28.7151ZM9.51657 10.8587C9.51657 6.07578 13.4077 2.18453 18.1908 2.18453C22.9739 2.18453 26.865 6.07566 26.865 10.8587C26.865 15.6418 22.9739 19.5329 18.1908 19.5329C13.4077 19.5329 9.51657 15.6417 9.51657 10.8587ZM6.49675 32.8654C6.49675 34.0168 5.55992 34.9537 4.40851 34.9537C3.2571 34.9537 2.32027 34.0168 2.32027 32.8654C2.32027 31.714 3.2571 30.7772 4.40851 30.7772C5.55992 30.7772 6.49675 31.714 6.49675 32.8654ZM20.279 32.8654C20.279 34.0168 19.3422 34.9537 18.1908 34.9537C17.0394 34.9537 16.1025 34.0168 16.1025 32.8654C16.1025 31.714 17.0394 30.7772 18.1908 30.7772C19.3422 30.7772 20.279 31.714 20.279 32.8654ZM31.973 34.9535C30.8216 34.9535 29.8848 34.0167 29.8848 32.8653C29.8848 31.7139 30.8216 30.7771 31.973 30.7771C33.1245 30.7771 34.0613 31.7139 34.0613 32.8653C34.0613 34.0168 33.1245 34.9535 31.973 34.9535Z" fill="white"/>
</svg>
