<svg width="27" height="29" viewBox="0 0 27 29" fill="none" xmlns="http://www.w3.org/2000/svg">
<path d="M20.3694 12.5362C20.3694 12.5362 18.2545 10.7972 17.1265 9.10531C16.7035 8.49433 15.3406 8.58833 14.8706 9.76328L7.53889 12.5832L2.69808 9.99827C1.94611 9.52829 0.959144 9.85728 0.53616 10.7502C0.113176 11.5962 0.348167 12.6772 1.14714 13.1472L1.89911 13.5701C1.24113 13.4761 0.53616 13.8051 0.207173 14.4631C-0.215811 15.3091 0.0191801 16.39 0.818149 16.86L2.51008 17.847C1.75811 17.377 0.771151 17.706 0.348167 18.5989C-0.0748162 19.4449 0.160175 20.5259 0.959143 20.9958C0.959143 20.9958 9.46581 26.2596 12.3797 27.8106C14.6826 29.0795 19.2414 29.6905 22.1083 26.2126C23.0483 24.9907 20.3694 12.5362 20.3694 12.5362Z" fill="#D99B57"/>
<path d="M23.8944 12.5361C22.3905 11.5021 21.3565 10.1392 20.6046 8.07124C20.3226 7.36627 19.2886 7.22528 18.6776 8.40023C17.7847 10.0922 18.6306 11.4551 19.1006 12.0661L19.3356 12.3481C19.3356 12.3481 19.4766 12.8651 19.7116 13.476C18.4426 13.194 17.0327 13.899 16.0457 15.215C15.0118 16.5779 12.5679 18.9278 11.5339 20.2908C10.265 21.9357 10.5939 24.2856 12.0039 25.3196C12.0039 25.3196 19.3826 30.7244 24.2704 24.0976C28.1243 18.9278 25.3984 13.57 23.8944 12.5361Z" fill="#FFDD67"/>
<path d="M21.4031 14.5101C22.1551 15.074 22.343 16.155 21.7791 17.001C21.2621 17.8469 20.1811 18.0819 19.4292 17.5179L7.72661 9.10527C6.97464 8.54129 6.78665 7.46033 7.35063 6.61436C7.86761 5.76839 8.94856 5.5334 9.70054 6.09738L21.4031 14.5101Z" fill="#FFDD67"/>
<path d="M15.3407 13.5701L7.86799 8.16529C7.44501 7.8833 7.16302 7.41332 7.30401 6.70834C6.78703 7.64831 7.11602 8.58827 7.72699 9.05825L15.1997 14.463C15.9517 15.027 16.0927 14.1341 15.3407 13.5701Z" fill="#EBA352"/>
<path d="M17.5969 16.155C18.3489 16.719 18.5369 17.8 17.9729 18.6459C17.4559 19.4919 16.375 19.7269 15.623 19.1629L3.92046 10.7033C3.16849 10.1393 2.9805 9.05832 3.54447 8.21235C4.06145 7.36639 5.14241 7.1314 5.89438 7.69537L17.5969 16.155Z" fill="#FFDD67"/>
<path d="M13.0843 16.343L4.06067 9.81021C3.63769 9.52823 3.3557 8.96425 3.4967 8.35327C2.97972 9.29323 3.2617 10.3272 3.91968 10.7972L12.9903 17.2359C13.6953 17.7999 13.8363 16.8599 13.0843 16.343Z" fill="#EBA352"/>
<path d="M16.844 19.9149C17.596 20.4789 17.784 21.5598 17.22 22.4058C16.703 23.2518 15.622 23.4868 14.8701 22.9228L3.16753 14.4631C2.41556 13.8991 2.22757 12.8182 2.79155 11.9722C3.30853 11.1262 4.38948 10.8913 5.14145 11.4552L16.844 19.9149Z" fill="#FFDD67"/>
<path d="M11.2988 19.3509L3.30915 13.6171C2.88617 13.3351 2.60418 12.6771 2.79217 12.0192C2.18119 12.9121 2.41618 14.0871 3.07416 14.5571L11.1578 20.2438C11.9098 20.8078 12.0508 19.9149 11.2988 19.3509Z" fill="#EBA352"/>
<path d="M16.5153 24.1446C17.2672 24.7086 11.9094 25.2726 11.1575 24.7086L2.88579 18.7398C2.13382 18.1759 1.94583 17.0949 2.50981 16.2489C3.02679 15.403 4.10774 15.168 4.85972 15.732L16.5153 24.1446Z" fill="#FFDD67"/>
<path d="M26.1973 19.2569C26.1973 19.2569 25.3984 23.3928 22.1085 25.8837C19.1946 28.0926 14.6828 26.1657 12.5209 24.7557C10.2649 23.2048 9.13698 22.4528 3.68519 18.317C2.65123 17.518 2.36925 17.001 2.51024 16.1551C1.71127 17.001 2.13425 18.317 2.79223 18.787L3.35621 19.1629C3.35621 19.1629 9.88895 23.9568 12.0979 25.4607C14.1188 26.8706 19.3356 29.0796 22.6255 26.4477C26.3383 23.5808 26.1973 19.2569 26.1973 19.2569ZM20.6045 13.8521C19.6646 12.8652 19.6176 11.4552 19.6176 11.4552L19.3826 11.1732C19.0066 10.7033 18.3956 9.71631 18.6306 8.54135C17.7376 10.1863 18.6306 11.5022 19.0536 12.0662L19.2886 12.3482C19.2886 12.3482 19.2416 12.7712 19.4766 13.1002L20.6045 13.8521Z" fill="#EBA352"/>
<path d="M15.8105 0.64563L17.2204 6.37941L19.9933 1.06861L15.8105 0.64563ZM22.7662 2.33756L20.6513 7.08438L25.5861 5.81543L22.7662 2.33756ZM12.2386 1.3506L13.5545 6.5204L9.23071 3.74751L12.2386 1.3506Z" fill="#42ADE2"/>
</svg>
