<svg width="27" height="31" viewBox="0 0 27 31" fill="none" xmlns="http://www.w3.org/2000/svg">
<path d="M25.7725 12.2494C25.7725 12.2494 24.254 13.6667 21.6725 15.3371C20.9639 11.2371 18.9898 6.17533 15.1428 0C15.1428 0 13.8774 6.63089 9.67616 12.8568C7.85393 10.0223 7.04405 7.79509 7.04405 7.79509C-6.1165 21.0063 4.81688 30.3705 11.7009 30.3705C20.5083 30.3705 28.2528 26.1186 25.7725 12.2494Z" fill="#FF9D33"/>
<path d="M20.5585 23.9927C21.3178 22.3223 21.8746 20.1458 21.9758 17.4124C21.9758 17.4124 20.9128 18.3236 19.0906 19.4878C18.5844 16.7544 17.2178 13.4137 14.535 9.26303C14.535 9.26303 13.6745 13.6668 10.7387 17.868C9.47328 15.9952 8.91649 14.4766 8.91649 14.4766C6.73993 17.9186 5.87944 20.652 5.82882 22.8285C4.614 22.373 3.85474 22.0186 3.85474 22.0186C5.93005 28.194 10.2325 29.5606 12.156 29.5606C15.598 29.5606 19.0906 28.5483 22.5326 23.6384C22.5326 23.5878 21.7733 23.7903 20.5585 23.9927Z" fill="#FFCE31"/>
<path d="M8.00572 21.2087C8.00572 21.2087 9.42301 23.1322 10.486 22.6766C10.486 22.6766 12.5107 19.4877 15.4465 17.7161C15.4465 17.7161 14.8391 22.5754 15.5477 23.4359C16.4588 24.6001 18.9391 22.1705 18.9391 22.1705C18.9391 25.0557 15.8008 28.6495 12.9662 28.6495C10.2329 28.6495 6.28472 25.5112 8.00572 21.2087Z" fill="#FFDF85"/>
<path d="M22.1279 8.14942C23.1909 6.6309 23.8995 5.01114 23.8995 5.01114C25.6712 7.94695 24.6082 9.71856 23.8489 10.2754C22.786 11.0852 20.9131 9.92104 22.1279 8.14942ZM2.79204 7.64325C1.72907 5.87163 1.62784 3.64446 1.62784 3.64446C-0.90304 7.44078 0.0586926 9.56671 0.91919 10.1741C2.03278 11.0346 3.95624 9.71856 2.79204 7.64325ZM8.66367 3.69508C8.81552 2.48026 8.30935 1.26544 8.30935 1.26544C10.6884 2.83458 10.6884 4.15064 10.3847 4.70743C9.92911 5.36546 8.51182 5.06175 8.66367 3.69508Z" fill="#FF9D33"/>
</svg>
