<svg width="27" height="27" viewBox="0 0 27 27" fill="none" xmlns="http://www.w3.org/2000/svg">
<path d="M26.2415 13.1207C26.2415 20.3809 20.3809 26.2415 13.1207 26.2415C5.86059 26.2415 0 20.3809 0 13.1207C0 5.86059 5.86059 0 13.1207 0C20.3809 0 26.2415 5.86059 26.2415 13.1207Z" fill="#FFDD67"/>
<path d="M20.5557 15.7449C20.5557 15.395 20.337 14.9577 19.7685 14.8265C18.2377 14.5203 16.0072 14.2579 13.1206 14.2579C10.2341 14.2579 8.00354 14.5641 6.47279 14.8265C5.90423 14.9577 5.68555 15.395 5.68555 15.7449C5.68555 18.9376 8.13475 22.1303 13.1206 22.1303C18.1065 22.1303 20.5557 18.9376 20.5557 15.7449Z" fill="#664E27"/>
<path d="M11.5903 10.8902C10.7593 8.65965 9.53475 7.52252 8.31015 7.52252C7.08554 7.52252 5.86094 8.65965 5.02996 10.8902C4.94249 11.1089 5.37985 11.5025 5.59853 11.2838C6.38577 10.4528 7.34796 10.1029 8.31015 10.1029C9.27233 10.1029 10.2345 10.4528 11.0218 11.2838C11.2842 11.5025 11.6778 11.1089 11.5903 10.8902Z" fill="#664E27"/>
<path d="M21.1677 10.8902C20.3367 8.65965 19.1121 7.52252 17.8875 7.52252C16.6629 7.52252 15.4383 8.65965 14.6074 10.8902C14.5199 11.1089 14.9572 11.5025 15.1759 11.2838C15.9632 10.4528 16.9254 10.1029 17.8875 10.1029C18.8935 10.1029 19.8119 10.4528 20.5992 11.2838C20.8178 11.5025 21.2552 11.1089 21.1677 10.8902Z" fill="#664E27"/>
<path d="M18.6749 15.8761C17.7127 15.7012 15.7009 15.4388 13.1205 15.4388C10.54 15.4388 8.5282 15.7012 7.56601 15.8761C6.99744 15.9636 6.95371 16.1823 6.99744 16.5321C7.04118 16.7071 7.04118 16.9695 7.12865 17.2319C7.17239 17.4943 7.25986 17.6255 7.69722 17.5818C8.5282 17.4943 17.7564 17.4943 18.5874 17.5818C19.0248 17.6255 19.0685 17.4943 19.156 17.2319C19.1997 16.9695 19.2435 16.7508 19.2872 16.5321C19.2872 16.1823 19.2435 15.9636 18.6749 15.8761Z" fill="white"/>
<path d="M26.2415 13.1207C26.2415 20.3809 20.3809 26.2415 13.1207 26.2415C5.86059 26.2415 0 20.3809 0 13.1207C0 5.86059 5.86059 0 13.1207 0C20.3809 0 26.2415 5.86059 26.2415 13.1207Z" fill="#FFDD67"/>
<path d="M20.5557 15.7449C20.5557 15.395 20.337 14.9577 19.7685 14.8265C18.2377 14.5203 16.0072 14.2579 13.1206 14.2579C10.2341 14.2579 8.00354 14.5641 6.47279 14.8265C5.90423 14.9577 5.68555 15.395 5.68555 15.7449C5.68555 18.9376 8.13475 22.1303 13.1206 22.1303C18.1065 22.1303 20.5557 18.9376 20.5557 15.7449Z" fill="#664E27"/>
<path d="M11.5903 10.8902C10.7593 8.65965 9.53475 7.52252 8.31015 7.52252C7.08554 7.52252 5.86094 8.65965 5.02996 10.8902C4.94249 11.1089 5.37985 11.5025 5.59853 11.2838C6.38577 10.4528 7.34796 10.1029 8.31015 10.1029C9.27233 10.1029 10.2345 10.4528 11.0218 11.2838C11.2842 11.5025 11.6778 11.1089 11.5903 10.8902Z" fill="#664E27"/>
<path d="M21.1677 10.8902C20.3367 8.65965 19.1121 7.52252 17.8875 7.52252C16.6629 7.52252 15.4383 8.65965 14.6074 10.8902C14.5199 11.1089 14.9572 11.5025 15.1759 11.2838C15.9632 10.4528 16.9254 10.1029 17.8875 10.1029C18.8935 10.1029 19.8119 10.4528 20.5992 11.2838C20.8178 11.5025 21.2552 11.1089 21.1677 10.8902Z" fill="#664E27"/>
<path d="M18.6749 15.8761C17.7127 15.7012 15.7009 15.4388 13.1205 15.4388C10.54 15.4388 8.5282 15.7012 7.56601 15.8761C6.99744 15.9636 6.95371 16.1823 6.99744 16.5321C7.04118 16.7071 7.04118 16.9695 7.12865 17.2319C7.17239 17.4943 7.25986 17.5818 7.69722 17.5818H18.5874C19.0248 17.5818 19.0685 17.4943 19.156 17.2319C19.1997 16.9695 19.2435 16.7508 19.2872 16.5321C19.2872 16.1823 19.2435 15.9636 18.6749 15.8761Z" fill="white"/>
</svg>
