<svg width="27" height="27" viewBox="0 0 27 27" fill="none" xmlns="http://www.w3.org/2000/svg">
<path d="M13.1207 26.4829C20.3671 26.4829 26.2415 20.6086 26.2415 13.3622C26.2415 6.11581 20.3671 0.241455 13.1207 0.241455C5.87435 0.241455 0 6.11581 0 13.3622C0 20.6086 5.87435 26.4829 13.1207 26.4829Z" fill="#EF5350"/>
<path d="M17.0569 21.1034C14.5203 19.0041 11.7212 19.0041 9.18449 21.1034C8.87834 21.3658 8.61593 20.9284 8.8346 20.5348C9.62185 19.0478 11.1526 17.692 13.1207 17.692C15.0888 17.692 16.6633 19.0478 17.4068 20.5348C17.6255 20.8847 17.3631 21.3221 17.0569 21.1034Z" fill="#302424"/>
<path d="M3.58659 10.2569C2.93055 12.3125 3.849 14.6305 5.90459 15.5489C7.91643 16.5111 10.2782 15.7676 11.459 13.9307L8.44126 10.563L3.58659 10.2569Z" fill="white"/>
<path d="M5.33587 10.6506C4.72357 11.9189 5.29213 13.4496 6.56047 14.0182C7.82881 14.6305 9.35956 14.0619 9.92812 12.7936C10.3655 11.9626 5.72949 9.81957 5.33587 10.6506Z" fill="#302424"/>
<path d="M3.58594 10.2569C4.28571 9.81954 5.11669 9.60086 5.94767 9.60086C6.77865 9.60086 7.60963 9.81954 8.39687 10.1694C9.14038 10.5193 9.84015 11.0441 10.4087 11.6564C10.9335 12.3125 11.3709 13.056 11.4584 13.887C10.8898 13.3184 10.3212 12.8373 9.70895 12.3999C9.09664 11.9626 8.48434 11.6127 7.87204 11.3503C7.21601 11.0441 6.55997 10.8255 5.8602 10.6068C5.07295 10.4756 4.37318 10.3444 3.58594 10.2569Z" fill="#302424"/>
<path d="M22.6554 10.2569C23.3114 12.3125 22.393 14.6305 20.3374 15.5489C18.3256 16.5111 15.9638 15.7676 14.783 13.9307L17.8007 10.563L22.6554 10.2569Z" fill="white"/>
<path d="M20.9058 10.6506C21.5181 11.9189 20.9495 13.4496 19.6812 14.0182C18.4128 14.6305 16.8821 14.0619 16.3135 12.7936C15.8761 11.9626 20.5121 9.81957 20.9058 10.6506Z" fill="#302424"/>
<path d="M22.6554 10.2569C21.9556 9.81954 21.1246 9.60086 20.2937 9.60086C19.4627 9.60086 18.6317 9.81954 17.8445 10.1694C17.101 10.5193 16.4012 11.0441 15.8326 11.6564C15.3078 12.3125 14.8704 13.056 14.783 13.887C15.3515 13.3184 15.9201 12.8373 16.5324 12.3999C17.1447 11.9626 17.757 11.6127 18.3693 11.3503C19.0253 11.0441 19.6814 10.8255 20.3811 10.6068C21.1684 10.4756 21.8682 10.3444 22.6554 10.2569Z" fill="#302424"/>
</svg>
