<svg width="27" height="29" viewBox="0 0 27 29" fill="none" xmlns="http://www.w3.org/2000/svg">
<path d="M0 13.6036C0 20.8669 5.85747 26.7244 13.1207 26.7244C20.384 26.7244 26.2415 20.8669 26.2415 13.6036C26.2415 6.34038 20.384 0.48291 13.1207 0.48291C5.85747 0.48291 0 6.34038 0 13.6036Z" fill="#FFDD67"/>
<path d="M4.77961 5.16892C6.37284 4.23172 8.29409 4.09114 10.0748 4.70032C10.3091 4.79404 10.6839 3.9037 10.4028 3.80998C8.38781 3.06023 6.1854 3.24767 4.31101 4.32544C4.02985 4.46602 4.54531 5.3095 4.77961 5.16892ZM16.026 6.57471C17.6192 5.63752 19.5404 5.49694 21.3211 6.10611C21.5554 6.19983 21.9303 5.3095 21.6491 5.21578C19.6342 4.46602 17.4317 4.65346 15.5574 5.73123C15.2762 5.87181 15.7917 6.66843 16.026 6.57471Z" fill="#917524"/>
<path d="M9.41845 15.8061C11.8083 15.1969 14.4324 15.6186 16.4474 17.0244C16.9629 17.3524 16.0257 18.6645 15.5102 18.2896C14.1513 17.3993 12.0426 16.7433 9.84018 17.3056C9.27787 17.4462 8.80927 15.9935 9.41845 15.8061Z" fill="#664E27"/>
<path d="M18.182 13.1819C16.2607 13.1819 14.6675 11.5886 14.6675 9.66739C14.6675 8.87077 14.9486 8.12102 15.3704 7.5587C16.167 7.3244 17.0573 7.23068 17.9945 7.23068C19.1192 7.23068 20.1969 7.41812 21.1341 7.74614C21.509 8.30846 21.7433 8.96449 21.7433 9.71425C21.6964 11.6355 20.1501 13.1819 18.182 13.1819Z" fill="white"/>
<path d="M18.6501 7.23068C18.8375 7.51184 18.9781 7.83986 18.9781 8.21474C18.9781 9.19879 18.1815 9.99541 17.1974 9.99541C16.2134 9.99541 15.4636 9.19879 15.4636 8.2616C15.4636 7.98044 15.5105 7.74614 15.6511 7.51184C16.354 7.3244 17.1506 7.23068 17.9941 7.23068H18.6501Z" fill="#664E27"/>
<path d="M8.0594 13.1819C6.13815 13.1819 4.54492 11.5886 4.54492 9.66739C4.54492 8.87077 4.82608 8.12102 5.24782 7.5587C6.04443 7.3244 6.93477 7.23068 7.87196 7.23068C8.9966 7.23068 10.0744 7.41812 11.0116 7.74614C11.3864 8.30846 11.6207 8.96449 11.6207 9.71425C11.5739 11.6355 9.98065 13.1819 8.0594 13.1819Z" fill="white"/>
<path d="M8.52873 7.23073C8.71617 7.51189 8.85675 7.83991 8.85675 8.21478C8.85675 9.19884 8.06014 9.99545 7.07608 9.99545C6.09203 9.99545 5.29541 9.19884 5.29541 8.21478C5.29541 7.93362 5.34227 7.69933 5.48285 7.46503C6.18575 7.27759 6.98236 7.18387 7.82584 7.18387C8.107 7.23073 8.29443 7.23073 8.52873 7.23073Z" fill="#664E27"/>
<path d="M13.4017 20.164C11.4336 20.6326 6.41959 21.2418 5.52925 20.3046C5.10752 19.8829 5.20124 19.2737 5.34182 18.1959C5.48239 17.1182 4.45148 15.9935 3.70172 15.8998C2.81139 15.8061 2.29593 16.4621 2.62395 17.3993C3.27999 19.508 1.96791 20.164 1.87419 21.7104C1.82733 22.6007 1.54618 24.1003 2.90511 26.0215C4.45148 28.1771 7.12249 28.2239 8.05968 28.1771C9.13746 28.1302 9.60605 28.0833 9.84035 27.6147C10.1215 27.0524 9.98093 26.9118 10.1215 26.7244C10.3558 26.3027 10.4964 26.3495 10.637 25.8341C10.7775 25.3186 10.4027 24.9906 10.4964 24.7563C10.6838 24.194 11.1524 24.2877 10.6838 22.9756C12.2771 22.7413 13.308 22.507 14.2452 21.9447C15.979 21.0075 14.4795 19.9297 13.4017 20.164Z" fill="white"/>
<path d="M6.32586 28.4582C4.73263 28.1771 3.42056 27.3804 2.57708 26.2089C1.26501 24.3814 1.35873 22.9288 1.45245 21.9447V21.6167C1.49931 20.9606 1.68675 20.4452 1.92105 19.9297C2.24907 19.18 2.53022 18.5708 2.15535 17.4462C1.96791 16.8839 2.01477 16.3215 2.38964 15.9467C2.71766 15.6186 3.18626 15.4312 3.74858 15.5249H3.79544C4.77949 15.7124 5.90413 17.0244 5.76355 18.2896C5.62297 19.3206 5.57611 19.7892 5.85727 20.0703C5.90413 20.1172 6.0447 20.2578 6.56016 20.3046C8.34083 20.6326 11.8553 20.1172 13.308 19.7892C13.5423 19.7423 13.8234 19.7423 14.1046 19.7892C14.8075 19.9297 15.3229 20.3515 15.4635 20.8669C15.5104 21.1949 15.5104 21.8041 14.5263 22.3664C13.5891 22.8819 12.6051 23.1631 11.2461 23.3505C11.621 24.2877 10.7307 24.6157 10.9181 24.9906C11.1524 25.506 11.1056 25.9278 10.5901 26.4432C10.2152 26.7713 10.6838 27.193 10.3089 27.849C9.8872 28.5519 9.18431 28.5988 8.15339 28.6456C7.4505 28.5988 6.88818 28.5988 6.32586 28.4582ZM2.76452 16.9776C3.09254 18.5239 3.18626 19.0863 2.62394 20.3515C1.78047 22.0384 1.45245 26.8181 6.46644 27.7085C9.51233 28.2708 9.98092 27.521 9.84034 26.7244C9.74662 26.2089 10.1684 26.0215 10.3089 25.8341C10.637 25.2717 10.1684 24.9906 10.1684 24.7563C10.1684 24.3346 10.5901 24.3346 10.6838 23.9128C10.8244 23.1631 9.8872 22.8819 10.6838 22.835C12.2302 22.7413 13.2611 22.4602 14.1514 21.851C14.9949 21.2887 14.3857 20.1172 13.2611 20.3515C10.637 20.9138 6.70074 21.5698 5.38867 20.3515C4.77949 19.7892 5.24809 19.1331 5.20123 17.8679C5.10751 16.181 2.4365 15.5249 2.76452 16.9776Z" fill="#CCCFD4"/>
</svg>
