<svg width="36" height="32" viewBox="0 0 36 32" fill="none" xmlns="http://www.w3.org/2000/svg">
<path fill-rule="evenodd" clip-rule="evenodd" d="M16.7315 23.3505V18.5973C16.7315 18.3097 16.8437 18.0333 17.0441 17.8271C17.2447 17.6208 17.5178 17.5007 17.8052 17.4925C20.9722 17.4046 24.0642 18.3706 26.9942 20.3617C29.2874 21.9716 31.3024 23.9446 32.9602 26.2033C31.9383 18.4209 27.023 13.2676 17.4574 9.76121C17.2445 9.68344 17.0609 9.54218 16.9311 9.35657C16.8013 9.17069 16.7317 8.94963 16.7317 8.72322V3.92824L3.01864 13.6401L16.7315 23.3505ZM0.466888 12.7385L17.1969 0.886958C17.4187 0.729899 17.6907 0.660032 17.961 0.690631C18.231 0.721483 18.4804 0.850497 18.6614 1.05345C18.8424 1.25641 18.9421 1.51903 18.9419 1.79084V7.95576C25.0048 10.2877 29.2699 13.3509 31.9663 17.3047C34.3638 20.8213 35.4762 25.0147 35.3661 30.1255C35.361 30.3645 35.2787 30.5955 35.131 30.7836C34.9836 30.9718 34.7792 31.1072 34.5484 31.1694C34.3171 31.2306 34.0721 31.2155 33.8503 31.1261C33.6285 31.0366 33.4416 30.878 33.3174 30.6735C29.1602 23.8062 24.2113 20.0419 18.9418 19.7181V25.4884C18.9416 25.7602 18.8414 26.022 18.6601 26.2244C18.4791 26.4269 18.2299 26.5556 17.9602 26.5862C17.6902 26.6168 17.4186 26.5472 17.1968 26.3904L0.466824 14.5409C0.174118 14.3338 0.000228882 13.9975 0.000228882 13.6388C0.000228882 13.2803 0.174126 12.944 0.466824 12.737L0.466888 12.7385Z" fill="white"/>
</svg>
