<svg width="37" height="36" viewBox="0 0 37 36" fill="none" xmlns="http://www.w3.org/2000/svg">
<g clip-path="url(#clip0_1329_8855)">
<path d="M18.0039 24.75C20.6195 24.75 22.4477 23.5195 23.5164 22.3664C24.1422 21.6844 25.2109 21.6352 25.9 22.268C26.582 22.9008 26.6242 23.9695 25.9914 24.6516C24.4516 26.332 21.7797 28.125 18.0039 28.125C14.2281 28.125 11.5562 26.332 10.0164 24.6516C9.38359 23.9695 9.3625 22.9008 10.1078 22.268C10.7969 21.6352 11.8656 21.6844 12.4914 22.3664C13.5602 23.5195 15.3883 24.75 18.0039 24.75ZM14.657 14.625C14.657 15.8695 13.6445 16.875 12.407 16.875C11.1625 16.875 10.157 15.8695 10.157 14.625C10.157 13.3805 11.1625 12.375 12.407 12.375C13.6445 12.375 14.657 13.3805 14.657 14.625ZM36.0039 18C36.0039 27.9422 27.9461 36 18.0039 36C8.06172 36 0.00390625 27.9422 0.00390625 18C0.00390625 8.05781 8.06172 0 18.0039 0C27.9461 0 36.0039 8.05781 36.0039 18ZM18.0039 3.375C9.925 3.375 3.37891 9.92109 3.37891 18C3.37891 26.0789 9.925 32.625 18.0039 32.625C26.0828 32.625 32.6289 26.0789 32.6289 18C32.6289 9.92109 26.0828 3.375 18.0039 3.375Z" fill="#F9FCFD"/>
<path d="M18.0039 24.75C15.3883 24.75 13.5602 23.5195 12.4914 22.3664C11.8656 21.6844 10.7969 21.6352 10.1078 22.268C9.42578 22.9008 9.38359 23.9695 10.0164 24.6516C11.5562 26.332 14.2281 28.125 18.0039 28.125C21.7797 28.125 24.4516 26.332 25.9914 24.6516C26.6242 23.9695 26.6453 22.9008 25.9 22.268C25.2109 21.6352 24.1422 21.6844 23.5164 22.3664C22.4477 23.5195 20.6195 24.75 18.0039 24.75ZM21.3508 14.625C21.3508 15.8695 22.3633 16.875 23.6008 16.875C24.8453 16.875 25.8508 15.8695 25.8508 14.625C25.8508 13.3805 24.8453 12.375 23.6008 12.375C22.3633 12.375 21.3508 13.3805 21.3508 14.625ZM0.00390625 18C0.00390625 27.9422 8.06172 36 18.0039 36C27.9461 36 36.0039 27.9422 36.0039 18C36.0039 8.05781 27.9461 0 18.0039 0C8.06172 0 0.00390625 8.05781 0.00390625 18ZM18.0039 3.375C26.0828 3.375 32.6289 9.92109 32.6289 18C32.6289 26.0789 26.0828 32.625 18.0039 32.625C9.925 32.625 3.37891 26.0789 3.37891 18C3.37891 9.92109 9.925 3.375 18.0039 3.375Z" fill="#F9FCFD"/>
</g>
<defs>
<clipPath id="clip0_1329_8855">
<rect width="36" height="36" fill="white" transform="translate(0.00390625)"/>
</clipPath>
</defs>
</svg>
